<?xml version="1.0" encoding="UTF-8"?>
<!DOCTYPE svg PUBLIC "-//W3C//DTD SVG 1.1//EN" "http://www.w3.org/Graphics/SVG/1.1/DTD/svg11.dtd">
<!-- Creator: CorelDRAW X8 -->
<svg xmlns="http://www.w3.org/2000/svg" xml:space="preserve" width="215.9mm" height="279.4mm" version="1.1" style="shape-rendering:geometricPrecision; text-rendering:geometricPrecision; image-rendering:optimizeQuality; fill-rule:evenodd; clip-rule:evenodd"
viewBox="0 0 21590 27940"
 xmlns:xlink="http://www.w3.org/1999/xlink">
 <defs>
  <style type="text/css">
   <![CDATA[
    .str0 {stroke:#3A3838;stroke-width:17.64}
    .fil0 {fill:#3A3838}
    .fil2 {fill:black}
    .fil1 {fill:black;fill-rule:nonzero}
   ]]>
  </style>
 </defs>
 <g id="Layer_x0020_1">
  <metadata id="CorelCorpID_0Corel-Layer"/>
  <path class="fil0 str0" d="M9784 7415c1118,0 2024,906 2024,2024 0,1117 -906,2023 -2024,2023 -1118,0 -2024,-906 -2024,-2023 0,-1118 906,-2024 2024,-2024zm0 36c1098,0 1987,890 1987,1988 0,1097 -889,1987 -1987,1987 -1098,0 -1988,-890 -1988,-1987 0,-1098 890,-1988 1988,-1988z"/>
  <path class="fil0" d="M11275 9302c24,-42 39,-50 52,-112 -199,-174 -552,-43 -481,275 45,200 306,253 443,150 66,-49 26,-84 -18,-134 -76,6 -86,65 -190,35 -110,-33 -118,-241 26,-264 82,-13 98,40 168,50z"/>
  <path class="fil0" d="M11272 8627c28,-44 48,-55 50,-118 -286,-193 -545,31 -474,293 54,197 314,231 439,138 69,-52 16,-86 -13,-135 -11,1 -285,136 -277,-101 9,-224 271,-78 275,-77z"/>
  <path class="fil0" d="M11275 9969c24,-43 39,-50 52,-113 -199,-173 -552,-42 -481,276 45,200 306,252 443,150 66,-49 26,-84 -18,-134 -76,6 -86,65 -190,34 -110,-32 -118,-240 26,-263 82,-13 98,40 168,50z"/>
  <path class="fil0" d="M7802 11107c-11,11 -13,54 -11,70 3,18 3,28 14,38 34,29 84,-6 24,-85 -8,-10 -14,-21 -27,-23zm-30 66c-4,-36 10,-19 3,-60 -2,1 -4,0 -4,2l-30 25c17,25 2,19 31,33zm-41 60c8,-14 22,-21 5,-43 -16,-23 -49,-21 -64,-23 -16,-3 -8,-1 -25,-1 -24,1 -25,-14 -44,-2 28,31 83,79 128,69zm-27 -234l-11 73c1,9 6,27 8,36 49,22 27,9 55,-17 -5,-37 -15,-78 -52,-92zm-197 41c5,14 22,28 38,43 16,15 24,27 50,33 16,4 38,1 44,-14 5,-15 -6,-27 -15,-36 -5,-6 -6,-7 -14,-12 -19,-10 -1,-2 -18,-2 -25,0 -57,-12 -85,-12zm124 -155c-15,5 -10,-5 -20,29 -4,14 -6,17 -10,32 -4,12 -8,21 0,36 24,45 68,15 64,-24 -3,-27 -11,-32 -22,-53 -6,-12 -5,-14 -12,-20zm-35 -4c-28,7 -8,2 -22,12 -9,7 -11,5 -19,12 2,18 -1,11 9,20 0,1 8,7 9,8 1,1 3,4 4,4l5 4c2,-18 3,-14 8,-27 5,-14 4,-20 6,-33zm-44 94c-11,-52 -75,-54 -116,-67 -8,-3 -8,-5 -20,-6 5,39 76,102 116,88 18,-6 5,-4 20,-15zm-52 -70l-5 -28 -18 -10c-15,4 -29,13 -35,26 22,3 39,10 58,12zm49 -157c-14,57 -41,75 -31,106 1,5 29,57 56,10 7,-12 14,-16 12,-36 -2,-28 -13,-36 -24,-61 -2,-5 -2,-5 -5,-10 -6,-9 0,-3 -8,-9zm-26 6l-41 25c-1,0 -2,1 -3,2 4,22 10,15 20,36 10,-12 5,-12 14,-29 15,-29 8,-15 10,-34zm-186 15c11,37 85,128 128,80 11,-13 -7,-45 -47,-55 -23,-6 -65,-26 -81,-25zm87 3c-8,-28 -6,-49 -55,-22 1,14 38,24 55,22zm63 -154c-20,50 -53,57 -27,134 8,0 52,7 52,-43 0,-27 -16,-67 -25,-91zm-208 20c22,77 97,112 116,84 7,-11 -3,-34 -10,-41 -9,-9 -79,-44 -106,-43zm171 -7c-11,-1 -45,7 -29,50 25,-6 11,-2 20,-22 4,-7 6,-6 9,-12 6,-13 -1,-8 0,-16zm-84 11c-11,-19 -4,1 -12,-16 -5,-10 -4,-20 -10,-24 -13,-10 -27,13 -30,20 14,10 33,23 52,20zm68 -138c-22,8 -6,1 -15,9 -10,8 -16,30 -21,39 -16,30 -17,25 -3,71l44 -8c5,-13 5,-8 9,-23 2,-9 5,-19 5,-25 1,-24 -10,-49 -19,-63zm-41 3c-9,-4 8,-9 -38,0l11 42c16,-9 26,-24 27,-42zm-167 -3c5,27 20,59 43,72 19,11 47,28 63,4 15,-22 -20,-46 -34,-54 -20,-11 -49,-24 -72,-22zm160 -140c-21,15 -29,34 -42,53 -18,29 -20,31 -1,74 39,-6 42,-9 52,-40 8,-24 -1,-60 -9,-87zm-38 0l-42 14 7 43c2,-1 3,-4 4,-3 2,2 23,-32 24,-34 10,-16 4,-9 7,-20zm-62 73c-9,-50 -98,-84 -115,-84 13,54 57,125 99,98 2,-2 14,-12 16,-14zm-29 -80c-5,-20 -2,-14 -7,-23 -1,-1 -2,-2 -2,-2 -4,-6 -28,-8 -43,7 12,23 0,6 22,14 16,6 1,8 30,4zm137 -36c0,19 14,78 19,99 8,30 10,14 19,36 4,9 4,16 7,23 8,20 13,15 15,16 2,9 5,21 7,32 1,5 3,11 4,16 7,19 -9,-7 6,12 2,13 15,34 24,47 27,36 0,40 33,69 21,19 19,41 31,55 7,8 5,5 10,7l8 33 13 5c1,22 6,24 16,41 6,9 5,10 9,18 9,15 4,10 19,14 3,11 18,32 25,44 12,19 16,37 24,56 5,-47 -19,-69 -13,-124 2,-16 -2,-30 -5,-47 -10,-46 4,-45 -5,-85 -3,-14 -7,-29 -5,-43 1,-6 8,-24 12,-29 26,28 -9,51 20,103 -17,34 -3,56 3,92 6,41 -15,-9 6,93 18,84 11,42 57,112 10,14 11,28 16,47l6 -19c11,-75 -17,-62 -8,-136 4,-30 -14,-45 -4,-77 10,-33 -13,-49 -5,-77 15,7 21,48 20,67 -1,34 -9,2 4,70 8,38 -6,29 2,68 6,33 14,47 9,77 -5,28 10,35 25,50 57,61 34,45 51,75 8,14 3,-6 9,15 3,15 -3,40 -10,49 -7,9 -15,12 -24,19 4,13 48,48 60,58 22,17 71,38 45,65 -20,22 -73,-40 -103,-63 -14,-10 -23,-26 -36,-26 -1,-16 2,-8 -7,-10 -4,-8 1,-1 -9,-10 -46,-42 -24,-19 -61,-6l-26 6c-23,-24 -3,8 -47,-24 -20,-15 -42,-27 -59,-45 -7,-7 -12,-13 -18,-21 -24,-30 -30,-12 -18,-48 -28,-9 -64,-54 -82,-77 -15,-20 -3,-7 -22,-27 -24,-26 11,-11 -19,-42l-38 -50c-12,-19 5,10 -5,-10 -11,-23 -1,-4 -12,-18 -3,-3 -6,0 -10,-25 -4,-19 0,-19 -13,-33l-7 -6c0,-1 -1,-2 -2,-3 -23,-27 -36,-64 -47,-79 -21,-29 11,-14 -5,-35l-9 -9c-1,-1 -1,-2 -2,-3l-18 -26c-3,-7 -2,-6 -4,-11 0,-2 0,-3 -1,-4 -8,-19 -9,-3 -17,-27 -11,-32 -3,-42 -25,-71 -54,-73 -16,-46 -47,-134 -9,-26 2,-2 -14,-17 -15,-15 -5,-22 -8,-43 -5,-36 -14,-12 -23,-51 -8,-41 -19,-82 -27,-124l-20 -111c1,-13 -1,-7 5,-15 15,24 10,66 29,92 2,-41 -27,-147 -37,-197l-6 -111c2,-13 3,-8 3,-19 1,-23 -10,-32 3,-46 13,8 19,43 20,64 2,33 -12,-15 2,69 6,33 -15,34 18,142 12,-7 12,-6 14,-30 1,-22 5,-19 4,-38 -2,-36 6,-46 -6,-85 -26,-79 -6,-13 -13,-83 -4,-32 6,-44 -8,-84l7 -14c9,13 13,33 16,51 6,44 1,47 20,54 0,-1 1,-4 1,-3 1,0 3,-3 -1,-16l9 -9 4 28c-18,0 -8,5 -9,24 0,18 -4,16 2,32l0 10 5 37c6,30 11,43 12,44l3 6c0,17 3,14 14,17l7 28c4,29 1,10 10,13 25,7 13,-5 13,-5 13,-20 -10,-74 -15,-99l-15 -74c-6,-32 -11,-3 0,-28 9,33 30,170 47,185 10,-9 13,-22 16,-35 18,0 7,-8 18,6 -2,-40 -6,-70 -7,-107 0,-26 -16,-82 5,-107 20,48 -3,28 10,93 3,17 7,36 9,53 2,18 -2,31 0,49l20 151c5,68 22,39 -1,83 -1,1 -1,2 -2,3l-10 19c-42,11 -48,4 -33,49 22,-9 13,-8 25,-23l16 -19c3,-4 1,-4 6,-9 18,19 -5,20 -30,69 -28,54 46,99 67,-2 5,-23 0,-35 -12,-52 -11,-18 -5,-9 -19,-21 4,-21 3,-24 12,-47l9 -17c7,27 25,96 28,123 4,25 -2,13 -4,34 6,2 19,3 25,4zm-266 -117c4,31 12,33 17,43 15,25 2,32 47,60 16,10 2,7 19,7 41,-1 18,-48 11,-57 -5,-5 -57,-35 -62,-37 -16,-5 -3,3 -17,-6 -4,-3 -1,-2 -7,-6 -8,-6 5,-2 -8,-4zm81 -13l-37 7c7,14 6,13 20,18 10,4 14,4 23,6l-6 -31zm91 -60c-36,13 -65,74 -37,91 14,8 59,-6 37,-91zm-167 -27c4,27 7,46 22,60 36,32 64,13 43,-23 -10,-18 -21,-15 -41,-29 -11,-8 -6,-9 -24,-8zm17 -44c-3,23 16,45 34,42 16,-3 29,-30 19,-49l-33 -49 -20 56zm70 69c33,23 61,-30 47,-93 -19,9 -32,26 -39,42 -10,22 -28,37 -8,51z"/>
  <path class="fil1" d="M8122 11838l-50 -36 196 -270 -58 -42 37 -51 58 42c32,-45 62,-73 89,-85 36,-16 75,-8 117,25 28,22 43,47 45,75 2,26 -7,53 -27,81 -4,6 -9,12 -14,18l-49 -36c15,-23 23,-40 25,-49 3,-17 -5,-33 -24,-47 -22,-16 -44,-15 -66,1 -11,8 -26,26 -47,53l66 48 -37 51 -66 -48 -195 270zm508 30l-168 -86c-33,-17 -56,-11 -70,16 -6,11 -8,26 -6,43 1,6 3,16 5,29 45,-18 89,-16 131,6 24,12 42,30 53,54 12,25 12,50 0,73 -11,21 -26,33 -47,37 -36,7 -67,3 -95,-14 -22,-12 -42,-30 -60,-53 -19,-24 -33,-49 -41,-76 -15,-48 -13,-91 6,-128 8,-15 19,-28 34,-40 15,-11 30,-17 47,-19 11,-1 27,0 48,5l137 69 19 -37 -247 -125 29 -56 371 189 -28 56 -71 -36 -47 93zm-170 107c29,15 47,14 56,-3 2,-5 3,-9 3,-14 -1,-9 -10,-18 -26,-26 -26,-13 -53,-14 -82,-3 16,22 33,37 49,46zm598 36c-19,26 -39,48 -61,65 5,59 7,118 5,177l-61 -21c0,-25 -1,-63 -1,-113 -22,16 -45,26 -71,31 -28,5 -53,4 -78,-4 -35,-12 -60,-33 -75,-64 -14,-31 -15,-63 -3,-97 14,-36 37,-62 70,-76 32,-14 67,-13 105,2 36,15 66,48 90,98 29,-32 50,-64 64,-95l-290 -100 20 -59 411 141 -21 59 -62 -21c-16,34 -30,59 -42,77zm-283 -4c-6,17 -5,34 2,49 7,15 19,26 35,31 9,3 18,5 28,4 26,-1 56,-14 89,-40 -8,-16 -15,-30 -20,-41 -14,-21 -32,-36 -56,-44 -16,-6 -32,-5 -47,3 -15,8 -25,21 -31,38zm695 295c-18,23 -43,32 -73,29 -39,-5 -77,-33 -115,-83 -37,-51 -53,-96 -48,-136 6,-49 38,-70 96,-63l124 15 8 -62 -254 -31 8 -62 393 48 -8 62 -78 -9 -27 223c-4,29 -13,52 -26,69zm-176 -183c-3,19 10,49 38,88 28,39 52,60 72,63 17,2 26,-10 29,-34l14 -110 -120 -15c-21,-2 -32,0 -33,8zm178 -249c19,30 28,50 27,60 0,3 -1,6 -3,8 -2,2 -5,3 -7,2 -5,0 -12,-6 -20,-16 -27,-39 -53,-65 -77,-81 -27,-16 -61,-26 -104,-29 -9,-8 -14,-17 -13,-28 0,-12 5,-21 14,-25 8,-5 18,-6 31,-4 59,8 109,45 152,113zm138 245l264 13 -3 63 -264 -14 3 -62zm569 18c-13,2 -23,3 -31,4 -38,5 -68,13 -90,24 -27,13 -50,36 -69,67 18,15 41,27 70,38 31,11 56,14 76,11 19,-4 36,-15 53,-35 16,-20 26,-30 31,-30 11,-2 17,4 18,17 3,20 -6,41 -26,63 -19,22 -38,35 -58,39 -4,1 -8,1 -13,2 -40,5 -81,-2 -124,-19 -46,-18 -77,-43 -95,-76 4,-33 30,-71 77,-113 -11,-10 -25,-22 -43,-37 -17,-20 -29,-41 -37,-63l-54 7 -8 -63 419 -51 8 62 -75 9 17 140 -12 1c-7,1 -18,2 -34,3zm-171 -80c22,20 44,30 64,32l84 -11 -9 -77 -165 20c8,16 16,28 26,36zm93 -176c26,23 41,40 43,50 0,3 0,6 -2,9 -1,2 -3,3 -5,4 -6,1 -13,-3 -24,-11 -37,-29 -69,-48 -96,-56 -30,-8 -66,-8 -108,1 -11,-5 -18,-13 -21,-23 -3,-12 -1,-22 7,-29 6,-6 16,-10 29,-12 58,-9 117,14 177,67zm200 205l258 -59 14 61 -257 59 -15 -61zm607 -61c12,29 13,56 4,80 -9,26 -28,45 -57,57 -39,15 -84,13 -133,-7 -49,-20 -82,-49 -97,-88 -9,-21 -8,-43 3,-64 11,-21 26,-35 48,-44l38 -15 23 57 -33 14c-20,8 -27,19 -21,34 8,18 28,34 62,48 34,14 63,17 84,8 26,-11 33,-29 23,-56l-86 -211 -236 96 -24 -59 367 -148 24 58 -74 30 85 210zm-137 -321c-3,-6 -9,-11 -18,-16 -8,-4 -17,-4 -27,0 -9,5 -15,11 -18,20 -3,9 -3,18 2,27 2,5 6,11 10,15 12,11 18,19 18,24 -2,6 -5,10 -9,12 -6,3 -15,3 -26,1 -11,-3 -19,-6 -24,-11 -4,-4 -9,-10 -15,-20 -7,-9 -10,-14 -10,-14 -1,0 -10,3 -26,9 -17,5 -33,8 -47,8 -13,-1 -25,-5 -38,-14 -13,-8 -22,-19 -28,-31 -8,-17 -7,-29 3,-35l1 -1c5,-2 12,0 22,7 6,6 13,11 19,17 17,6 36,4 58,-6 10,-4 25,-15 45,-31 19,-15 34,-25 45,-30 26,-11 49,-10 71,2 14,8 26,21 34,39 6,12 7,26 5,43 -3,18 -10,30 -22,36 -6,3 -13,2 -19,-4 0,-5 0,-13 -1,-24 -1,-11 -3,-19 -5,-23zm120 84l-28 -55 109 -56 28 55 -109 56zm-60 -128c-6,-12 -6,-24 -2,-37 4,-13 12,-22 23,-28 12,-6 25,-7 37,-3 13,4 22,12 28,24 6,12 7,24 3,37 -4,13 -12,22 -24,28 -11,6 -24,7 -36,3 -13,-4 -22,-12 -29,-24zm562 29l-172 111c21,29 41,47 61,55 24,9 51,4 80,-15 12,-8 26,-22 40,-43 15,-20 25,-32 30,-35 9,-6 17,-5 23,4 7,11 6,30 -4,55 -11,29 -30,52 -57,70 -86,55 -161,36 -225,-57l-24 15c-14,9 -26,7 -36,-9 -12,-18 -15,-40 -10,-67 6,-26 18,-45 37,-57 14,-9 25,-7 34,7l17 25 121 -78 -55 -85 -237 154 -34 -53 355 -230 34 53 -67 43 89 137z"/>
  <path class="fil0" d="M11769 11107c11,11 13,54 11,70 -3,18 -3,28 -14,38 -35,29 -84,-6 -24,-85 7,-10 14,-21 27,-23zm29 66c5,-36 -10,-19 -2,-60 1,1 4,0 4,2l29 25c-16,25 -2,19 -31,33zm41 60c-7,-14 -21,-21 -5,-43 17,-23 49,-21 65,-23 16,-3 7,-1 25,-1 24,1 25,-14 43,-2 -28,31 -82,79 -128,69zm28 -234l10 73c0,9 -5,27 -7,36 -49,22 -27,9 -56,-17 6,-37 16,-78 53,-92zm197 41c-5,14 -22,28 -39,43 -15,15 -23,27 -50,33 -16,4 -37,1 -43,-14 -6,-15 5,-27 14,-36 6,-6 6,-7 14,-12 20,-10 2,-2 18,-2 26,0 58,-12 86,-12zm-124 -155c15,5 10,-5 19,29 4,14 7,17 11,32 4,12 8,21 0,36 -24,45 -69,15 -64,-24 3,-27 11,-32 22,-53 6,-12 5,-14 12,-20zm35 -4c28,7 8,2 21,12 10,7 11,5 20,12 -2,18 1,11 -9,20 0,1 -8,7 -9,8 -1,1 -4,4 -4,4l-6 4c-1,-18 -3,-14 -7,-27 -6,-14 -5,-20 -6,-33zm44 94c11,-52 75,-54 115,-67 9,-3 9,-5 20,-6 -5,39 -75,102 -115,88 -18,-6 -5,-4 -20,-15zm51 -70l6 -28 17 -10c16,4 29,13 35,26 -21,3 -38,10 -58,12zm-48 -157c14,57 40,75 31,106 -2,5 -29,57 -57,10 -7,-12 -13,-16 -11,-36 2,-28 12,-36 24,-61 2,-5 2,-5 5,-10 6,-9 -1,-3 8,-9zm26 6l41 25c0,0 1,1 2,2 -3,22 -9,15 -19,36 -10,-12 -5,-12 -14,-29 -15,-29 -8,-15 -10,-34zm186 15c-11,37 -86,128 -128,80 -11,-13 7,-45 47,-55 23,-6 65,-26 81,-25zm-87 3c8,-28 5,-49 55,-22 -1,14 -38,24 -55,22zm-63 -154c20,50 53,57 26,134 -8,0 -51,7 -51,-43 0,-27 16,-67 25,-91zm207 20c-22,77 -96,112 -115,84 -7,-11 3,-34 10,-41 9,-9 79,-44 105,-43zm-170 -7c11,-1 44,7 29,50 -26,-6 -11,-2 -21,-22 -3,-7 -5,-6 -8,-12 -7,-13 1,-8 0,-16zm84 11c11,-19 4,1 12,-16 5,-10 4,-20 10,-24 13,-10 27,13 30,20 -14,10 -34,23 -52,20zm-68 -138c22,8 5,1 15,9 10,8 16,30 21,39 16,30 17,25 3,71l-44 -8c-5,-13 -5,-8 -9,-23 -2,-9 -5,-19 -5,-25 -1,-24 10,-49 19,-63zm41 3c8,-4 -8,-9 38,0l-12 42c-16,-9 -25,-24 -26,-42zm166 -3c-5,27 -19,59 -42,72 -19,11 -48,28 -64,4 -15,-22 21,-46 35,-54 20,-11 48,-24 71,-22zm-159 -140c21,15 29,34 41,53 19,29 20,31 2,74 -40,-6 -43,-9 -52,-40 -8,-24 1,-60 9,-87zm38 0l42 14 -8 43c-1,-1 -2,-4 -3,-3 -2,2 -23,-32 -25,-34 -9,-16 -3,-9 -6,-20zm61 73c9,-50 99,-84 116,-84 -13,54 -58,125 -99,98 -2,-2 -15,-12 -17,-14zm30 -80c4,-20 2,-14 7,-23 0,-1 1,-2 2,-2 4,-6 28,-8 42,7 -11,23 1,6 -21,14 -17,6 -1,8 -30,4zm-137 -36c0,19 -14,78 -20,99 -7,30 -9,14 -18,36 -4,9 -4,16 -8,23 -7,20 -12,15 -15,16 -1,9 -4,21 -7,32 -1,5 -2,11 -4,16 -6,19 10,-7 -6,12 -2,13 -14,34 -23,47 -27,36 0,40 -33,69 -22,19 -20,41 -31,55 -7,8 -5,5 -10,7l-8 33 -13 5c-2,22 -6,24 -17,41 -5,9 -4,10 -8,18 -9,15 -5,10 -19,14 -3,11 -18,32 -25,44 -12,19 -16,37 -25,56 -4,-47 20,-69 14,-124 -2,-16 1,-30 5,-47 9,-46 -5,-45 4,-85 3,-14 8,-29 6,-43 -2,-6 -8,-24 -12,-29 -26,28 9,51 -20,103 16,34 2,56 -3,92 -7,41 14,-9 -7,93 -17,84 -10,42 -57,112 -9,14 -10,28 -15,47l-6 -19c-12,-75 17,-62 8,-136 -4,-30 14,-45 4,-77 -10,-33 13,-49 4,-77 -14,7 -20,48 -20,67 1,34 10,2 -4,70 -8,38 7,29 -1,68 -6,33 -15,47 -9,77 5,28 -10,35 -25,50 -57,61 -34,45 -52,75 -8,14 -3,-6 -8,15 -4,15 3,40 9,49 7,9 15,12 25,19 -4,13 -48,48 -61,58 -21,17 -70,38 -45,65 21,22 73,-40 104,-63 13,-10 23,-26 36,-26 0,-16 -2,-8 6,-10 4,-8 -1,-1 9,-10 46,-42 25,-19 62,-6l25 6c24,-24 3,8 47,-24 21,-15 43,-27 60,-45 6,-7 12,-13 18,-21 23,-30 29,-12 18,-48 27,-9 64,-54 82,-77 15,-20 3,-7 22,-27 24,-26 -12,-11 19,-42l38 -50c12,-19 -5,10 4,-10 12,-23 2,-4 13,-18 3,-3 6,0 10,-25 4,-19 -1,-19 13,-33l6 -6c1,-1 2,-2 2,-3 24,-27 37,-64 48,-79 21,-29 -11,-14 5,-35l9 -9c0,-1 1,-2 2,-3l18 -26c3,-7 2,-6 3,-11 1,-2 1,-3 2,-4 8,-19 9,-3 17,-27 10,-32 3,-42 24,-71 54,-73 17,-46 48,-134 9,-26 -2,-2 14,-17 15,-15 5,-22 8,-43 4,-36 13,-12 23,-51 8,-41 18,-82 27,-124l19 -111c0,-13 2,-7 -4,-15 -16,24 -11,66 -29,92 -2,-41 27,-147 37,-197l5 -111c-1,-13 -3,-8 -3,-19 0,-23 11,-32 -2,-46 -13,8 -19,43 -20,64 -2,33 11,-15 -2,69 -6,33 14,34 -19,142 -11,-7 -11,-6 -13,-30 -1,-22 -5,-19 -4,-38 2,-36 -7,-46 6,-85 25,-79 5,-13 13,-83 4,-32 -6,-44 7,-84l-7 -14c-8,13 -13,33 -15,51 -7,44 -1,47 -20,54 -1,-1 -1,-4 -2,-3 0,0 -3,-3 2,-16l-9 -9 -4 28c18,0 8,5 8,24 1,18 5,16 -2,32l1 10 -5 37c-6,30 -11,43 -12,44l-4 6c1,17 -2,14 -13,17l-7 28c-4,29 -1,10 -10,13 -26,7 -14,-5 -14,-5 -12,-20 11,-74 15,-99l16 -74c6,-32 10,-3 -1,-28 -8,33 -29,170 -46,185 -10,-9 -13,-22 -16,-35 -19,0 -7,-8 -19,6 3,-40 7,-70 7,-107 0,-26 17,-82 -4,-107 -21,48 2,28 -10,93 -4,17 -7,36 -9,53 -2,18 2,31 0,49l-20 151c-5,68 -22,39 1,83 0,1 1,2 1,3l11 19c42,11 48,4 33,49 -22,-9 -13,-8 -26,-23l-15 -19c-3,-4 -2,-4 -7,-9 -18,19 5,20 30,69 29,54 -46,99 -66,-2 -5,-23 0,-35 11,-52 12,-18 6,-9 20,-21 -5,-21 -3,-24 -12,-47l-9 -17c-7,27 -25,96 -29,123 -3,25 3,13 5,34 -6,2 -20,3 -25,4zm266 -117c-4,31 -12,33 -18,43 -14,25 -1,32 -46,60 -17,10 -2,7 -20,7 -40,-1 -17,-48 -10,-57 5,-5 57,-35 62,-37 16,-5 3,3 16,-6 5,-3 2,-2 7,-6 9,-6 -4,-2 9,-4zm-81 -13l37 7c-7,14 -6,13 -20,18 -10,4 -14,4 -23,6l6 -31zm-92 -60c36,13 65,74 38,91 -14,8 -60,-6 -38,-91zm167 -27c-3,27 -6,46 -21,60 -37,32 -64,13 -44,-23 11,-18 21,-15 42,-29 11,-8 6,-9 23,-8zm-17 -44c4,23 -16,45 -34,42 -16,-3 -28,-30 -18,-49l33 -49 19 56zm-69 69c-33,23 -62,-30 -47,-93 19,9 31,26 39,42 10,22 27,37 8,51z"/>
  <path class="fil0" d="M9581 8562c-14,1 -26,-9 -24,-25l-4 -10c-11,-1 -10,2 -10,-13 -3,-2 -5,10 -2,-9 -13,-5 -9,-3 -14,-18 -5,-18 -4,-9 -9,-19 -8,-16 -3,-38 -4,-56 -6,17 1,2 -7,9l2 2c-1,19 0,22 -16,25l2 15c2,10 19,34 24,43 3,8 1,4 3,10l3 6c17,32 7,19 14,33 7,14 10,5 12,31 13,6 13,10 14,48 1,18 -2,36 -3,55 0,25 -7,29 -11,46 -6,28 -17,32 -27,57 -5,12 -16,21 -28,44l-27 39c0,1 -1,2 -1,2 -1,1 -3,5 -4,6 -1,1 -3,3 -3,4 -1,1 -1,1 -2,2 -4,7 -4,9 -11,15l-4 2c-1,-1 -2,1 -3,1 5,14 1,4 -3,6 0,15 1,11 -10,14 1,10 3,15 -9,12 2,7 3,5 -4,4 3,9 2,4 -3,7 0,16 -23,34 -35,46 -10,11 -5,8 -22,10 -3,-6 -2,-1 -2,-11 -4,-2 -8,7 -3,-6 -19,-10 -15,-43 -14,-74 1,-17 0,-42 9,-56 7,-11 3,3 7,-13 4,-12 -1,-6 5,-17l19 -26c5,-10 1,-4 7,-13 1,-1 3,-3 3,-4l16 -20c11,-16 3,-16 30,-16 11,26 11,15 19,31 20,3 24,4 38,-7 11,-8 21,-14 28,-23 -24,-27 -40,-14 -82,-18 -1,-24 5,-6 12,-31 10,-37 13,-21 14,-55 1,-37 3,-52 -9,-78 -6,-12 -2,-10 -6,-20 -8,-20 -48,-81 -67,-96l-4 -3c-16,-11 -3,-1 -14,-15 -6,-6 -10,-10 -18,-13 4,20 2,11 18,29l3 3c3,4 5,5 8,9l19 20c10,10 5,4 10,16 6,13 6,6 12,21 5,11 7,14 11,22 4,10 2,15 6,26 12,28 11,56 9,89 -1,21 0,13 -8,27l-3 4c-10,20 -18,27 -29,42l-21 28c-8,10 -7,17 -18,15 3,7 4,6 -3,3 0,15 -3,15 -9,24 -1,1 -2,4 -3,4 -34,51 -19,-87 -24,-110 -1,-18 -4,-8 -8,-25 -3,-10 -3,-19 -3,-31l1 -3c-21,-13 -10,-18 -15,-44 38,7 36,29 69,-9 9,-10 12,-5 17,-24 -14,1 -56,-4 -62,3l-4 5c-10,12 -16,13 -20,25 -10,-13 -14,-10 -13,-35l0 -35c-3,-2 -5,-1 -7,-5 -26,36 -17,30 -42,10 -6,-5 -12,-8 -19,-14l-30 -19c-1,0 -2,0 -2,-1 -12,-6 -2,-2 -11,-2l0 7c14,1 22,-4 22,13 7,-2 8,-5 5,2 14,1 30,23 40,35l5 5c0,0 1,1 1,1l9 12c14,14 20,31 32,49 8,12 3,23 12,38 18,31 9,177 6,217 -2,19 -7,68 -4,84 11,73 -8,27 6,83 4,17 1,25 7,39l6 17c2,7 3,13 1,22 -1,15 10,35 13,53 5,5 1,-2 8,8 4,7 7,33 17,58 7,17 -1,22 8,37 8,14 11,22 5,37 -21,8 -33,1 -52,-3 -4,-4 0,-2 -2,-8 -10,2 -14,1 -24,-3l-49 -28c-62,-47 -39,-44 -61,-70 -6,-7 -6,-5 -8,-17 -6,-32 -8,-105 9,-133 0,0 1,-2 2,-2l3 -5c1,-23 10,-19 13,-48 1,-11 2,-18 6,-27 15,-36 8,-128 3,-142 -7,13 4,35 -16,36 -21,1 -12,-4 -13,-5 -14,0 -4,-1 -20,-6 -6,-2 -13,-2 -19,-4 -15,-4 -18,-11 -36,-11 -9,-1 -8,-1 -16,-6 -27,-19 -3,5 -30,-22 -10,11 -1,6 -14,11 -11,-5 -13,-10 -28,-12 3,11 -2,1 9,9l53 30c11,6 9,5 25,8 23,3 34,8 55,15 10,4 10,6 22,13 13,7 8,2 15,19 12,27 8,27 1,55 -3,12 0,-1 -1,8 -9,48 -8,18 -14,45 -6,21 -6,13 -11,25 -4,8 -4,19 -7,27 -7,14 -5,1 -10,23 -3,14 -1,15 -10,22 -10,-1 -9,-2 -17,-9 -10,-10 -4,-3 -10,-16 -14,-31 -17,-26 -24,-28 -6,6 -7,8 -14,13 12,21 44,35 47,68 12,5 9,4 14,18 12,28 49,89 76,108 9,7 2,-3 9,7 5,6 2,1 4,9 7,1 32,16 36,19l8 9c17,-3 8,-1 34,14l4 3c8,-3 7,-4 3,3 4,4 3,-3 4,8 0,16 1,3 -2,8 -3,4 -28,16 -37,16 0,8 -5,21 -10,25 16,5 38,8 51,-1 0,0 6,-6 6,-6 7,-7 3,0 6,-8 3,-6 3,-16 4,-22 23,-4 25,0 38,12 2,3 3,3 5,5l8 9c14,15 7,12 17,26 6,8 1,-6 8,12 12,34 9,19 16,39 12,31 25,58 26,89 0,14 6,17 9,29 2,8 3,25 4,33 13,15 14,49 9,66 -16,4 -20,3 -29,-8 -10,-11 -6,-8 -18,-18 -9,-8 -30,-27 -34,-38 -7,3 -7,6 -5,-2 -9,0 -14,2 -13,-9 -6,2 -5,3 -3,-4 -11,1 -4,1 -7,-3 -6,2 -5,3 -3,-3 -4,-3 -4,8 -4,-6 -18,-4 -7,-4 -20,-12 -6,-4 -5,-2 -10,-6 -12,-10 -3,-1 -7,-10 -18,-2 -10,-3 -17,-10 -11,-11 -29,-19 -37,-28l-32 -31c-18,-17 -20,-15 -21,-27 -7,3 -5,3 -3,-4 -9,-3 -8,-3 -14,-12 -16,-20 -4,-15 -24,-34 -1,-1 -2,-1 -2,-2 -1,0 -1,-1 -2,-1 -15,-13 -5,-2 -15,-17l-26 -30c-12,-12 -11,-5 -11,-19 -7,2 -5,3 -3,-3 -16,-2 -7,-7 -31,-28 -3,-4 -2,-3 -5,-5l-22 -20c-14,-13 -22,-14 -29,-23l-5 -6c-9,3 -4,2 -6,-3 -10,1 -4,3 -13,-3 -11,-7 -4,-4 -6,-8 -5,0 -8,2 -14,-2 -15,-9 -4,1 -7,-10 -8,1 -16,-1 -24,-5l-15 -12c-13,3 -7,7 -23,-12 -11,2 -8,3 -16,-3 -10,-6 -5,-4 -7,-11 -7,1 -9,2 -16,-2 -9,-6 -5,-2 -7,-10 -21,2 -58,-49 -69,-64 -1,-1 -1,-2 -2,-2 -10,-14 -5,1 -8,-17 -2,-22 -15,-16 -16,-49 -14,-7 -14,-16 -12,-50 -1,1 -2,2 -2,3 -1,0 -2,1 -3,2 -18,20 -21,14 -5,39 12,19 5,37 -17,21 0,-1 -1,-1 -2,-2 0,0 -1,-1 -2,-1l-6 -4c-5,-2 -8,-4 -11,-6 -14,-8 0,-5 -22,-7 -19,-1 -40,-1 -59,-2 -10,15 -14,15 -38,16l-3 -2c6,7 10,7 24,5 101,-13 119,5 180,80 16,20 18,16 24,21 11,11 3,24 -2,33 19,3 20,0 37,2 29,2 24,12 25,13 19,-4 16,3 46,16 13,5 3,1 12,7l27 16c18,11 19,0 20,24 -21,7 -72,0 -101,3 -19,1 -26,-1 -40,7 -15,8 -21,6 -38,9 17,3 21,2 35,8 -6,15 -2,5 -12,17 -11,13 4,8 -14,12 -9,22 -3,50 -4,75 35,-2 8,-2 31,-14 18,-10 10,-13 25,-16 -1,-6 -3,-6 3,-5 -2,-21 18,-23 6,-44 -10,-16 -25,-19 -17,-41l15 -1c10,-6 39,-4 56,-3 22,1 34,-1 43,12 25,0 25,12 36,23 12,12 6,5 21,9 15,5 26,21 37,32 1,0 1,1 2,1l3 3c9,8 5,2 10,10l3 6c1,1 1,2 1,3 7,9 7,2 9,17 5,1 4,-4 3,7 11,2 10,0 10,13 7,6 17,25 27,36 7,8 2,3 6,10 13,20 9,-1 11,18 3,18 -14,16 -32,13 -16,-2 -16,-2 -20,-13 -38,-8 -2,5 -47,-12 -21,-8 -14,2 -47,-12 -18,-9 -90,-7 -115,-8 -46,-1 -103,8 -146,-7 -9,-3 -14,-3 -26,-4 -27,-2 -21,-12 -42,-13 -14,-2 -13,-5 -24,-11 -17,-9 -43,-28 -58,-40l-70 -60 -8 15 -44 2c-4,6 -2,4 -8,11 -20,23 0,19 -22,30l4 13c9,-5 39,-11 53,-7 3,-8 -1,-3 6,-11 19,-21 7,-17 16,-32 19,0 27,11 33,27 1,0 3,-1 3,0 1,0 2,1 3,1 0,-1 0,1 1,2 7,-3 6,-4 3,3 1,1 7,-8 5,15 0,17 3,4 -4,11 -7,6 -19,5 -27,3 3,8 3,5 -6,3l1 -2 -14 25c-6,8 -18,21 5,22 1,1 14,0 16,0 48,-3 39,-23 46,-53 16,-3 29,11 41,18l33 22c1,0 2,1 3,1 19,0 2,4 21,9 14,4 19,2 29,9 0,12 2,2 -2,11l-8 9c50,6 127,-18 206,-12 70,5 63,5 67,39 5,-8 2,-12 7,-22 26,-9 26,-7 48,3 18,8 30,1 48,11 16,9 -2,3 17,7 15,4 12,3 23,9 10,5 11,3 22,7l60 38c17,14 79,66 82,83 15,1 16,0 17,12 16,2 16,7 26,16 16,13 26,18 44,34l16 14c14,11 12,2 12,17 17,3 5,-1 14,10 3,5 6,8 10,13 7,11 14,22 15,33l-3 0c19,23 24,67 12,87 -15,-1 -33,-18 -34,-32 -12,2 -4,1 -6,-4 -8,3 -7,5 -3,-3 -6,-2 -5,2 -4,-7 -12,2 -4,1 -5,-3 -11,-2 -6,3 -7,-7 -8,-2 -5,0 -7,-6 -17,-4 -22,-23 -52,-43 -9,-7 -45,-38 -46,-52 -8,3 -7,5 -4,-3 -12,2 -9,-2 -10,-9 -21,-5 -60,-46 -80,-57 -20,-11 -13,-6 -20,-26 24,-19 30,-12 16,-43 -6,-13 -1,-12 -16,-12l-5 52 -9 3c-13,2 -22,-7 -27,-15 -16,1 -9,-1 -19,-7 -8,-5 -10,-3 -20,-9 -12,-7 -2,-6 -16,-10 -12,-3 -12,0 -24,-7 -9,-5 -1,-4 -17,-7 -9,-2 -17,-3 -25,-6 -12,-5 -1,-5 -21,-8 -13,-2 -13,1 -26,-3 -62,-20 -152,-15 -215,-7 5,-3 -4,0 6,-1 24,-2 119,6 141,19 0,19 -7,22 -27,19 -13,13 -11,9 -30,15 -17,6 -16,16 -35,11 -1,1 -2,1 -2,2 0,1 -2,1 -2,1 -10,2 -3,1 -9,1 16,2 13,16 10,34 -3,2 -2,2 -8,3 1,6 2,4 -4,4 1,3 1,3 0,7 -2,10 2,6 -2,3 20,0 2,-1 8,5 6,-2 5,-3 3,3 2,2 3,1 4,8 2,10 1,5 0,13l-4 4 8 4c0,-1 1,0 1,0 0,-1 1,-2 1,-3l1 -5c2,-11 -2,-28 3,-37 8,-14 0,-3 9,-6 0,-17 -2,-20 13,-20 0,-10 2,-12 19,-23 7,-5 6,-3 14,-6 45,-15 24,-13 90,-11 28,1 16,1 33,9 11,4 21,2 32,7 9,4 3,4 14,8 7,2 10,2 16,4 7,4 13,14 18,20 -7,10 -7,7 -18,13l-24 22c-2,2 -5,4 -7,6l-6 3c2,8 4,7 -4,4 3,7 4,5 -4,3 3,6 3,4 -3,3 2,11 3,6 -3,6 -1,13 1,11 -10,13 2,13 2,7 -3,7 0,13 1,7 -6,17 -2,2 -3,3 -5,5 -5,6 1,1 -5,4 0,9 1,4 -2,8 0,1 -2,2 -2,2 0,-1 -2,0 -3,0 2,12 2,6 -3,7 1,9 3,9 -2,18 -2,5 1,1 -4,5 -5,4 -1,1 -7,3 1,17 -4,18 -10,29 -2,6 -2,9 -5,14 -6,9 -3,5 -10,9l2 3c2,17 -4,17 -17,43 -7,14 -37,52 -52,68 -1,1 -2,2 -2,2 -1,1 -1,1 -2,2l-7 8c0,1 -1,2 -1,2l-20 24c-12,13 -19,14 -33,31l-5 5c-7,7 7,2 -10,5 -7,3 -21,14 -28,19 -4,4 -7,7 -13,11 -7,5 -7,7 -18,7 -2,6 3,5 -8,3 -1,5 4,2 -5,8 -8,5 0,2 -10,2l-16 11c-15,10 -24,5 -39,9 27,14 51,-5 66,-9 30,-7 40,-27 59,-26 1,-2 -2,-2 4,-8 10,-9 -1,-4 12,-5 1,-6 -3,-5 6,-4 -2,-7 -3,-6 4,-3 -3,-7 -5,-6 2,-4 -2,-6 -3,-6 3,-4 -2,-6 -3,-5 3,-2 -1,-7 -2,-6 4,-3 -2,-7 -4,-6 3,-4 -2,-7 -3,-5 4,-3 -3,-7 -3,-5 4,-2 2,-6 -3,-1 6,-11 5,-6 4,-5 13,-7 1,-13 1,-12 14,-12 -3,-7 -4,-6 3,-3 0,-10 -3,-3 2,-10 7,-10 3,-4 11,-7 -3,-7 -5,-6 2,-4 -2,-6 -3,-5 4,-2 -2,-8 -3,-6 4,-4 -3,-6 -5,-6 2,-4 1,-8 27,-40 36,-49l7 -6c-3,-12 -2,-5 3,-7 1,-13 2,5 14,-28l24 -48c1,0 1,-1 2,-2 -1,-6 -4,-4 1,-14 5,-10 7,-6 9,-7 -2,-13 -2,-6 3,-7 -1,-23 13,-23 19,-1 4,18 11,27 9,42l4 0c5,3 5,0 11,9 5,7 3,5 3,12 6,-1 4,-1 3,5 7,-2 7,-5 4,2 7,-2 6,-3 3,4 0,0 1,1 1,2l26 20c0,-1 -1,-2 -1,-2 0,0 1,-6 -8,-16 -7,-8 -11,-7 -11,-21 -10,-2 -5,2 -12,-9 -5,-9 -15,-34 -16,-48 -1,-28 -3,-44 10,-62l7 -10 4 1c-1,-15 0,-8 8,-21 8,-13 3,-13 17,-13 5,-15 17,-16 36,-15 17,0 48,12 60,20 7,5 10,6 16,10 12,9 23,14 27,26 12,1 5,-1 14,6 0,0 8,8 10,9l39 40c19,19 15,11 16,23 7,-3 5,-3 3,3 7,-2 6,-3 3,4 7,-3 6,-4 4,3 6,-3 5,-4 3,3 21,7 103,126 113,151 6,16 3,7 10,17 6,10 3,12 7,22 4,9 4,2 9,17 8,23 18,46 15,68 0,0 8,-4 12,22 6,40 2,134 1,176l-18 131c-11,48 -4,23 -10,66 -3,24 -10,33 -12,58 -1,25 -1,33 -11,55 -4,7 -1,4 -4,7 7,29 -8,52 -11,78 -1,13 -2,25 -6,36 -5,12 -9,18 -7,37l-1 41c47,-2 1,13 101,12 33,0 71,2 108,2l0 -1305c-43,-5 -88,-94 -90,-109l-3 -4c0,-1 0,-2 -1,-2 -17,-31 -11,-22 -9,-43 0,-4 5,-4 10,-4 12,2 2,3 14,5 12,2 18,-1 27,-5 30,-12 43,-32 52,-61l0 -58c-11,2 -19,5 -31,8 -20,6 -25,2 -44,13 -17,9 -18,9 -27,29 -5,11 -15,25 -22,31 -15,-21 -26,-95 -30,-104 -9,-22 -6,-31 -9,-58l-2 -14c-5,-43 2,-40 2,-45 1,-2 1,-3 2,-4l-2 1c-1,-11 0,-22 2,-33 2,-6 2,-7 6,-11 4,-5 4,-3 8,-5 -3,-11 -3,-5 3,-7 0,-19 1,-4 9,-18 4,-11 3,-10 18,-11 3,-9 2,-9 14,-9 6,-5 22,-4 31,-3 15,1 17,1 22,12l11 4c8,-2 8,-4 5,3 7,-3 4,-3 2,5 6,-7 7,7 6,-16 -15,-3 -22,-14 -22,-28 11,-7 22,-8 34,-15 7,-4 11,-8 14,-10l0 -15 -1 0c-14,9 -3,5 -22,13 -14,5 -8,6 -22,11l-10 3c0,1 -1,1 -2,2 -6,3 -4,4 -9,7 -14,8 -41,6 -20,-23 10,-13 5,-11 11,-20l11 -21c6,-13 34,-53 40,-83 3,-16 3,-10 8,-20 3,-5 13,-61 16,-89l0 -117zm0 606c-16,0 -30,-1 -33,-1 -24,4 -7,-1 -16,8 15,0 32,-1 49,-1l0 -6z"/>
  <path class="fil0" d="M9057 9689c1,7 3,6 -4,4 4,7 4,6 -3,3 3,7 3,5 -4,2 3,7 5,6 -2,6l-1 45c4,1 6,1 9,5 7,8 3,1 4,12 9,3 27,12 29,23 32,-2 64,5 97,3 0,-1 1,-3 1,-2l3 -10c-7,-2 -9,5 -6,-10 -6,-4 -1,4 -5,-6 -2,-7 -1,-5 -1,-10 -1,-1 -5,-3 -7,-7 -7,-10 -3,0 -6,-15 -3,-17 -6,-10 -14,-23 -5,0 -4,1 -3,-5 -10,-3 -6,-1 -12,-7l-11 -9c-1,-1 -2,-1 -2,-2 -12,3 -56,3 -62,3z"/>
  <path class="fil0" d="M8465 9159c1,6 2,4 -5,2 0,10 -4,9 -12,11l-2 4 11 2 2 11c6,-1 6,-3 4,3 14,3 4,2 14,10 11,9 7,-3 12,13 11,-1 41,-2 53,-1 2,28 0,29 -14,41 3,10 25,12 37,15 29,6 28,-3 43,-11 0,-7 -2,-6 5,-4 -1,-13 -1,-5 3,-6 1,-6 -1,-4 3,-10 7,-10 0,-3 8,-6l-1 -28c-25,-13 -49,1 -66,0l-7 -2c-1,-4 5,-12 7,-17 -5,-3 -5,-2 -9,-7 -1,-1 -4,-5 -5,-5l-8 -8c-7,-6 -38,-19 -45,-18 -10,2 -13,10 -28,11z"/>
  <path class="fil0" d="M8367 9752c-3,-8 -3,-5 4,-3 3,-10 -2,0 3,-7l13 -13c45,-47 19,-50 24,-93 -13,-6 -9,-2 -16,-14l-41 0c-13,20 -6,6 -15,17 -24,26 -18,70 -10,89 7,14 6,25 10,41 12,-10 19,-16 28,-17z"/>
  <path class="fil0" d="M8356 9463c10,7 10,6 11,22l0 5c9,6 14,5 14,20 10,6 10,3 13,16 7,3 -1,-3 8,5 5,4 3,4 5,7 9,1 15,3 22,4 23,6 13,-5 28,-2 42,10 34,-41 19,-66 -5,-8 -1,8 -4,-9 -15,-3 -13,-1 -16,-14l-100 -3 0 15z"/>
  <path class="fil0" d="M8321 9074c-10,3 -21,13 -30,20 -13,11 -14,11 -25,23 2,4 1,4 3,6 25,1 59,38 111,27 23,-6 39,-29 34,-52 -4,-20 -7,-18 -22,-25 -13,-7 -12,-11 -34,-11 -30,0 -15,7 -37,12z"/>
  <path class="fil0" d="M8356 8786c0,1 1,1 1,2l49 39c9,5 -2,0 8,4 24,11 50,4 70,-9 19,-12 14,-49 -1,-60 -26,-20 -62,-18 -92,-3 -9,4 -13,3 -23,6 -11,3 -10,6 -20,9l8 12z"/>
  <path class="fil0" d="M8792 8654c2,0 4,5 16,0 19,-9 20,-62 -16,-78 -2,4 -3,9 -5,14l-9 27c-5,14 -2,15 -6,25 -34,-1 -10,-9 -35,-17 -10,-3 -25,-3 -38,-1 -21,3 -18,5 -29,11l-10 4c-1,1 -1,1 -2,1 -11,6 -5,5 -10,12 4,5 3,3 5,4 1,1 3,2 4,3 1,0 1,1 2,2l11 8c25,13 51,35 72,21 0,-1 1,-1 1,-2l16 -12 5 -11c1,-1 2,-4 2,-5l9 -15 17 9z"/>
  <path class="fil0" d="M8393 9843c24,2 84,10 103,-5 11,-8 48,-46 21,-69 0,0 -8,-5 -8,-5 -10,-7 -18,-9 -34,-8 -14,1 -39,18 -39,18l-16 24c-5,6 -25,35 -27,45z"/>
  <path class="fil0" d="M9183 10145c5,3 6,-7 4,7 13,-1 3,-1 6,4 6,-3 6,-4 3,3 5,3 1,-1 6,4 4,4 1,1 4,6 11,3 12,3 16,13l19 3c-1,-22 13,-82 -17,-99 -14,-9 -41,12 -37,-24 3,-17 14,-17 -1,-52 -6,-12 -4,-5 -10,-14 -3,-6 -4,-10 -8,-15 -1,-1 -7,-11 -9,-13 -5,-6 -2,-2 -5,-5l-31 -35c-34,-35 -44,-53 -49,-58 -8,-8 -9,-7 -18,-9 3,19 40,56 56,72 28,28 42,46 60,81 4,9 0,0 5,7 5,8 5,8 6,22 2,29 1,74 0,102z"/>
  <path class="fil0" d="M8887 8804c-6,-4 -3,-1 -8,-5l-23 -16c-10,-8 -18,-11 -30,-8l-2 6c-2,9 -3,-4 0,18 6,39 -9,45 18,76 13,16 20,16 32,17 9,0 15,-1 23,-3 2,-4 4,-7 7,-10 19,-27 5,-60 -17,-75z"/>
  <path class="fil0" d="M8656 8939l0 -1c-11,-5 -8,2 -10,-11 -6,2 -5,4 -4,-3 -9,-2 -28,-15 -32,-24 -16,1 -18,-2 -23,-12l-14 1c0,33 -4,98 34,110 69,22 50,-35 49,-60z"/>
  <path class="fil0" d="M9221 9241c13,5 35,10 48,0 15,-12 22,-24 26,-40 9,-32 8,11 13,-69 -12,2 -22,7 -40,14 -12,4 -5,4 -16,10 -18,11 -31,14 -33,39 -2,16 -2,32 2,46z"/>
  <path class="fil0" d="M8855 8613c4,17 -2,20 1,37 2,10 7,13 13,22 19,30 26,13 54,13 7,-17 5,-41 6,-63l2 -5c-9,0 -7,2 -4,-7l-10 -3 -4 -19c-6,0 -6,2 -3,-3 -10,2 -8,-1 -11,-13l-10 -2 -1 -12c-10,5 -16,12 -19,25 -5,16 -5,18 -14,30z"/>
  <path class="fil0" d="M8248 9256c25,4 76,10 96,-6 24,-20 28,-28 24,-61 -1,0 -2,-1 -3,-1 -1,3 -24,-13 -34,-13 -9,0 -15,5 -27,11 -1,0 -22,12 -35,36l-21 34z"/>
  <path class="fil0" d="M8471 9974c1,18 24,65 37,73 8,4 44,15 56,-1 18,-25 -6,-53 -16,-59 -20,-12 -46,-16 -77,-13z"/>
  <path class="fil0" d="M8987 9311l-7 -2c1,5 3,5 -3,3 0,21 -26,31 -26,71 32,-1 88,-9 99,-41 -1,-27 0,-17 -8,-36 -8,-1 -20,-1 -28,0 -10,1 -14,4 -27,5z"/>
  <path class="fil0" d="M9047 8349c9,0 14,1 21,-2 9,-3 23,-20 26,-31 9,-47 0,-54 -16,-76 -15,7 -10,7 -22,16 -10,6 -20,17 -24,26 -5,14 1,32 -2,48l5 2c10,6 8,7 12,17z"/>
  <path class="fil0" d="M9329 9406c-1,5 4,8 -10,9 -6,17 -4,8 -12,18 -9,12 3,8 -12,13 -3,19 -1,26 -3,42 12,2 6,-1 11,7l5 10c0,-1 0,2 1,2 21,-1 32,4 42,-13 12,-20 7,-18 12,-43l3 -6c-5,-4 -2,0 -5,-6 -2,-2 -3,-4 -4,-6 -4,-9 -3,-7 -3,-16 -6,-6 -5,-3 -6,-15l-16 0c1,6 3,6 -3,4z"/>
  <path class="fil0" d="M8671 9291c8,-12 -11,8 5,-5l8 -6c5,-4 5,-5 12,-10 23,-17 38,-34 31,-63l-16 -35 -31 1c9,8 20,9 9,21 -5,5 -16,11 -21,18 -6,10 -6,24 -6,36 0,6 1,15 1,20 1,9 3,16 8,23z"/>
  <path class="fil0" d="M8652 9635c-4,34 -7,27 -1,64l-1 9c13,1 13,2 14,15 11,-1 9,2 10,11 6,-3 4,-3 2,3 18,0 10,4 24,-1l-3 -2c-4,-28 6,-21 10,-40 2,-12 -1,-28 1,-40 -6,0 -4,1 -2,-5 -9,-2 -10,0 -9,-12l-1 -4c-11,0 -15,-2 -25,-2 -11,0 -6,2 -19,4z"/>
  <path class="fil0" d="M9046 10168c13,-2 26,1 38,-2l44 -13 9 -11c9,-11 7,-16 8,-33 -15,-8 -2,-10 -22,-13 -24,-4 -36,3 -48,16 -1,2 -12,16 -12,17 -21,38 -13,16 -17,39z"/>
  <path class="fil0" d="M8959 9991c-2,-12 -1,-5 3,-7l-1 -8 8 -2c-2,-9 0,-25 0,-35 -9,-5 -10,-5 -13,-19 -9,-2 -17,-5 -26,-2 -13,5 -26,29 -28,42 -1,11 13,38 19,47 21,32 23,4 38,-16z"/>
  <path class="fil0" d="M9301 10087c3,-13 16,-13 27,-13 3,-8 1,-5 6,-9 1,0 2,-1 2,-1l7 -5c1,0 2,-1 3,-2 -7,2 -7,4 -4,-2 -10,1 -9,-1 -10,-10 -6,-1 -14,-2 -19,-5 -4,-2 -9,-8 -11,-10 -26,1 -17,-16 -50,-1 -10,4 -18,7 -20,20 -3,21 7,22 22,32 24,16 24,3 47,6z"/>
  <path class="fil0" d="M8404 9219c3,8 3,6 -4,3l-6 4c0,1 -1,1 -2,2l-7 8c-13,17 -5,46 -5,78 0,0 1,0 2,0l14 -1c2,-5 -2,-1 5,-8 2,-3 1,-2 6,-5 7,-4 7,-3 15,-4 2,-12 2,-11 14,-12 -1,-15 0,-5 3,-7 -5,-20 1,-9 3,-10 -1,-16 -3,-7 6,-10 -2,-7 -2,-10 -3,-15 -2,-5 -3,-5 -5,-14 -5,-16 -3,-14 -25,-15l-8 0c1,9 4,9 -3,6z"/>
  <path class="fil0" d="M8901 9684c4,-1 0,1 4,-3 16,-13 -4,2 5,-4l15 -9c5,-4 7,-6 12,-10 9,-7 6,-3 10,-13 -3,-2 2,0 -7,-3 -17,-6 -14,-1 -21,-14 -28,5 -48,-13 -68,9 -36,38 12,58 50,47z"/>
  <path class="fil0" d="M8773 8693c0,1 -1,1 -1,2 -1,3 -12,10 -14,11 0,27 -3,55 3,81l15 -5 1 1c2,-12 4,-13 16,-15 8,-26 34,2 26,-75 -3,-1 -4,-2 -7,-4l-10 -8c-24,5 -9,10 -29,12z"/>
  <path class="fil0" d="M8681 10138c10,4 9,1 10,14 6,-2 5,-3 3,3 6,-2 5,-3 4,3 6,-1 4,-3 3,3 6,-1 5,-2 3,4 6,-2 5,-3 3,3 6,-2 5,-3 4,3 6,-1 5,-2 3,3 6,-1 5,-2 3,4 6,-2 5,-3 4,3 3,0 7,1 10,3 7,4 3,0 4,5 11,-24 7,-69 5,-94l0 0 -12 -2c-5,-17 4,-4 -11,-12l-23 2c-3,9 1,1 -6,11 -3,5 -4,1 -6,11 -3,13 1,22 -1,33z"/>
  <path class="fil0" d="M9182 8711l1 2 35 -1c4,-9 9,-12 21,-15l10 -71c-27,-2 -16,-2 -47,15 -4,3 -4,3 -6,4 -9,8 -21,26 -24,33 -7,19 6,13 10,33z"/>
  <path class="fil0" d="M9070 10000l-12 7c3,24 12,15 17,38 20,6 6,11 28,16 14,3 29,-1 42,-2 3,-11 1,-10 13,-10 -1,-6 -2,-4 4,-3 -8,-21 4,-8 -15,-19l0 -11c-10,-2 -13,-2 -15,-12 -12,-2 -7,-2 -10,-5l-1 2c-12,-1 -17,-5 -27,-4 -12,1 -10,4 -24,3z"/>
  <path class="fil0" d="M8489 8938c1,-1 2,-2 2,-1l35 -27c10,-8 24,-10 22,-48 -1,-23 -5,-17 -15,-29 -20,1 -42,18 -46,30 -6,16 -4,59 2,75z"/>
  <path class="fil0" d="M8764 10060c6,19 -5,51 23,72 24,18 14,7 33,16 0,-9 3,-7 3,-7 0,-2 -2,-2 -1,-8 1,-1 1,-2 1,-3l4 -5 -2 -11 10 -7 -2 0c-5,-30 -1,0 -14,-42 -5,-3 -10,-4 -14,-6 -9,-4 -9,-4 -11,-12 -29,8 -2,-7 -30,13z"/>
  <path class="fil0" d="M9019 8519c2,7 3,5 -3,3 2,7 3,6 -4,3 3,7 4,6 -3,4 2,6 4,5 -3,3 4,14 1,5 -3,7l-2 10c-2,11 -7,-8 9,13l4 5 0 -2c12,0 36,5 51,6 2,-2 0,0 6,-4 19,-10 18,-23 34,-40 -10,-25 -45,-11 -70,-18 -2,10 -2,11 -16,10z"/>
  <path class="fil0" d="M8883 8286c0,7 0,15 -1,22 -4,16 -16,16 -11,47 3,20 39,38 40,40 5,-5 5,-6 14,-10 4,-14 7,-56 1,-68 -7,-14 -28,-25 -43,-31z"/>
  <path class="fil0" d="M8842 8480c5,0 4,-1 2,4 11,-1 10,3 11,13l25 25c12,0 21,2 34,0 23,-4 7,-7 25,-10 -3,-7 -3,-5 3,-3 -2,-17 0,-15 -8,-23l-10 -10c-9,-9 -4,1 -9,-13l0 1c-41,-7 -30,-8 -72,3l-1 13z"/>
  <path class="fil0" d="M8925 9122c1,1 2,1 3,1l4 3c10,4 12,6 24,8 43,8 66,-27 67,-60 -21,-1 -55,-6 -72,7 -9,6 -24,30 -26,41z"/>
  <path class="fil0" d="M9349 8924c13,20 28,27 55,14 7,-4 1,0 7,-6l17 -19c1,-1 1,-1 2,-2l14 -17 -50 -8c-14,-3 -23,4 -38,21 0,0 -1,1 -1,1 -1,1 -1,2 -2,2 -5,6 0,3 -8,8l4 6z"/>
  <path class="fil0" d="M8398 9551c-7,2 -6,4 -6,-3l2 2c-9,0 -9,2 -6,-5 -7,3 -6,3 -3,-4 -6,2 -5,3 -3,-3 -15,2 -37,1 -60,18 -5,3 -11,9 -13,13 10,16 41,24 53,25 8,1 20,-4 28,-9 7,-4 6,-1 8,-13 1,-5 0,-14 0,-21z"/>
  <path class="fil0" d="M8649 9872c26,0 50,5 66,-10 9,-8 1,3 8,-9 5,-9 4,-19 4,-30 -19,-12 -12,-11 -24,-12 -27,-1 -51,40 -54,61z"/>
  <path class="fil0" d="M9452 9095c8,-2 6,-3 3,4 14,-2 11,4 13,10l19 1 2 -12 11 -2c0,-28 11,-32 -22,-69l-10 -8c-9,26 -10,13 -14,31 -3,17 0,30 -2,45z"/>
  <path class="fil0" d="M8535 8989c-5,-1 -5,6 -3,-7 -6,2 -5,3 -3,-3 -7,3 -6,4 -3,-3 -8,3 -5,3 -5,-6l2 1c-7,0 -6,2 -4,-5l-17 -3c-10,47 -35,59 13,89 34,-22 18,-25 20,-63z"/>
  <path class="fil0" d="M8628 9865c-9,-7 -5,-9 -21,-11 -19,-3 -43,-3 -45,19 -2,18 16,30 35,30 17,0 26,-6 43,-17l4 -3c-3,-19 -2,-9 -16,-18z"/>
  <path class="fil0" d="M9416 8345c-47,17 -61,67 -36,76 40,15 52,-40 36,-76z"/>
  <path class="fil0" d="M8546 8700c-1,1 -2,1 -3,2 0,1 -11,12 -14,19 -3,7 -4,17 -5,27 -2,45 34,46 47,21 3,-7 4,-12 3,-21 -1,-10 -4,-9 -9,-18l-19 -30z"/>
  <path class="fil0" d="M9029 8573c0,17 -3,49 3,63 10,22 41,11 45,11 1,-10 2,-20 1,-30 -3,-25 -19,-27 -43,-41l-6 -3z"/>
  <path class="fil0" d="M8571 9838l28 0c7,-1 21,-8 28,-12l8 -6c-2,-17 0,-9 -16,-17 -12,-6 -6,-8 -20,-10l-38 -1c-1,11 -2,10 -8,15l-4 4c13,23 18,13 22,27z"/>
  <path class="fil0" d="M8899 9099c13,-41 -24,-48 73,-44 -1,-1 -2,-2 -3,-2 -28,-11 8,0 -10,-3l-72 -2 -6 12c-3,6 -2,5 -6,9 -29,27 -11,0 -23,37 -6,18 -6,3 -10,17 17,-8 45,-12 57,-24z"/>
  <path class="fil0" d="M9125 8587l0 10 -9 3 -3 14 2 43c14,2 16,5 32,5 6,-15 13,-11 11,-32 -2,-22 -7,-8 -13,-32 -10,-2 -10,-5 -12,-14l-5 0c2,5 3,4 -3,3z"/>
  <path class="fil0" d="M8647 10141c28,-49 -59,-64 -47,19 2,8 0,12 14,5 4,-1 32,-22 33,-24z"/>
  <path class="fil0" d="M9116 9295c13,0 10,0 15,-3 34,-16 21,-53 13,-78 -7,13 -18,12 -32,36 -12,19 -7,28 4,45z"/>
  <path class="fil0" d="M9399 8162l1 20c7,4 10,2 9,15 7,-3 4,-3 3,5l4 6 31 1 0 -45c-10,-7 -9,-5 -14,-16 -26,-1 -2,-6 -26,-9 -6,9 -1,15 -8,23z"/>
  <path class="fil0" d="M8524 10128c21,0 14,-4 30,-9 20,-6 14,2 25,-16 15,-23 2,-35 -26,-37 -18,24 -27,15 -29,62z"/>
  <path class="fil0" d="M8655 10036c-7,-36 -3,-13 -10,-32 0,-2 -2,-8 -2,-8 -5,-14 -6,-4 -14,-21l-34 1c0,15 -2,27 6,37l10 9c14,8 25,11 44,14z"/>
  <path class="fil0" d="M9064 9118c-6,7 -17,21 -19,30 -5,25 3,22 18,18 32,-7 43,-11 44,-50l-43 2z"/>
  <path class="fil0" d="M9496 8671l-2 1c9,4 4,2 11,8 6,4 1,3 10,6 10,3 20,1 29,-1 0,-19 4,-30 -12,-42 -19,-15 -26,-16 -48,-16 0,0 1,1 1,2 1,1 1,2 2,2 0,1 2,4 2,5 7,11 6,20 7,35z"/>
  <path class="fil0" d="M9071 8919c-7,13 -28,54 -10,75 20,22 28,-4 28,-4 23,-35 -3,-41 -18,-71z"/>
  <path class="fil0" d="M8826 8903c3,3 2,1 0,5 0,1 -1,2 -1,3 -1,0 -2,1 -2,1l1 9c-3,3 -2,1 -9,3l1 3c-1,15 2,33 1,42 10,1 19,7 26,12 2,-11 3,-8 13,-14l5 -29 -7 -9c-8,-11 -13,-22 -24,-31l-4 5z"/>
  <path class="fil0" d="M9238 8252l2 9 11 1c34,-1 19,7 46,-20 18,-17 10,-15 15,-20 6,-4 0,-1 5,0 -22,-3 -3,0 -11,-5l-49 2c-9,12 -18,10 -19,33z"/>
  <path class="fil0" d="M9328 8401l2 1 -3 -21c11,-4 15,-6 27,-3 3,-3 -8,-3 9,-4l0 2c14,-32 8,-33 9,-72 -9,3 -14,9 -20,16l-12 11c-17,19 -10,34 -23,44 11,-1 14,12 11,26z"/>
  <path class="fil0" d="M9195 9398c17,2 36,0 44,-17 8,-17 0,-40 2,-55 -11,7 -21,15 -34,26 -12,11 -14,27 -12,46z"/>
  <path class="fil0" d="M8571 9176c11,2 20,7 28,12l0 -3c5,-8 8,-4 12,-11 8,-14 2,-34 -11,-50 -5,-6 -11,-8 -14,-17 -4,10 -3,11 -7,18 -2,5 -7,9 -8,13 -6,16 1,30 0,38z"/>
  <path class="fil0" d="M9087 8400c5,4 10,6 16,9 4,-2 9,-3 15,-6 0,0 6,-3 6,-3 9,-8 10,-19 11,-31 0,-9 -1,-20 -1,-29 -11,2 -10,0 -20,8l-12 10c-16,15 -15,12 -15,42z"/>
  <path class="fil0" d="M8951 8858c-2,30 -20,27 -7,46 3,3 6,6 9,11 48,3 28,-36 30,-71l-17 5c-1,0 -1,2 -2,2 -8,9 -1,5 -13,7z"/>
  <path class="fil0" d="M9089 8730c-6,24 -9,39 1,63 14,4 12,4 26,2 3,-5 2,-3 4,-10 5,-11 6,-19 2,-31 0,0 -3,-7 -4,-9 -3,-7 0,-2 -4,-8l-5 -5c-9,-10 -1,-6 -11,-11l-9 9z"/>
  <path class="fil0" d="M8599 8695l-2 4c0,1 -1,2 -1,2 0,1 -1,2 -1,2l-4 4c-7,4 -3,1 -10,3l5 2c21,11 1,14 43,14 17,0 7,2 23,-4 1,-2 7,-13 8,-20 0,0 -18,-31 -42,-13 -10,7 -1,8 -19,6z"/>
  <path class="fil0" d="M8981 8661c-18,1 -15,2 -24,16 -5,8 -10,16 -11,23 -9,41 31,28 38,27 -1,-23 4,-44 -3,-66z"/>
  <path class="fil0" d="M9342 8651l-2 -2c0,7 1,5 -5,4 -2,6 1,4 -6,6 1,6 3,5 -3,4 -2,40 -16,39 35,35 5,-20 7,-10 11,-21 3,-8 4,-28 4,-38 -17,10 -8,11 -34,12z"/>
  <path class="fil0" d="M9037 8369c-41,-9 -42,1 -49,7 -17,15 -12,-7 -15,12 -2,17 2,9 5,11 6,5 35,5 44,4 22,-4 15,-11 15,-34z"/>
  <path class="fil0" d="M9266 9069c14,-16 23,-2 29,-27 1,-4 1,-3 1,-8 -1,-19 -37,-11 -46,0 -7,11 -4,10 -7,20 -4,13 -4,5 -8,16l31 -1z"/>
  <path class="fil0" d="M8670 8839l-1 -24 1 -2c-11,-1 -10,-5 -12,-11 -20,-1 -34,-4 -48,-8 1,25 0,10 9,23l5 10c0,1 0,2 1,3 7,16 18,-2 25,17 1,0 2,-2 2,-1l18 -7z"/>
  <path class="fil0" d="M8815 9839c-2,15 -2,15 -13,20l-2 27c18,-3 25,-7 40,-14 22,-9 19,-22 17,-32 -17,-8 -25,-3 -42,-1z"/>
  <path class="fil0" d="M9112 8563c29,-4 -2,-8 47,-14 2,-12 4,-10 5,-20 1,-12 -2,-13 -3,-24 -41,4 -45,32 -49,58z"/>
  <path class="fil0" d="M8787 9774c3,6 3,2 0,7 0,1 -1,2 -1,2 -1,1 -2,2 -3,2 1,8 2,10 -4,16 10,7 23,-2 38,2 -2,-7 -3,-6 4,-3 1,-7 -3,-4 1,-9l8 2c-2,-15 0,-5 4,-7 -8,-38 8,-22 -32,-29 -10,2 -15,5 -15,17z"/>
  <path class="fil0" d="M9149 8926c2,7 3,5 -3,4 5,25 -8,19 -13,42l29 -5c10,-4 11,-11 26,-11 -2,-7 -3,-5 5,-5l-1 -6c-2,-11 1,-21 -12,-22 -14,-2 -17,4 -31,3z"/>
  <path class="fil0" d="M8466 9708c26,2 6,21 57,12 1,-18 -2,-17 -2,-32l-52 1 -12 -1 1 15c4,4 -2,2 8,5z"/>
  <path class="fil0" d="M8451 9034c-21,-1 -16,-5 -27,-9 -9,-4 -19,-1 -29,0 8,3 7,4 10,13 4,13 5,16 14,25 3,4 0,3 8,6 10,4 22,1 24,-2 6,-5 1,-26 0,-33z"/>
  <path class="fil0" d="M8503 9585c7,4 32,9 39,7 12,-4 20,-17 27,-26l-8 -13c-10,-1 -14,-2 -24,0 -11,2 -12,4 -25,20 -4,4 -7,6 -9,12z"/>
  <path class="fil0" d="M9297 8775l-9 -13c-14,1 -25,7 -34,17 -7,8 -8,21 -8,35 5,0 38,-10 44,-13l7 -26z"/>
  <path class="fil0" d="M9581 8816c-2,0 -7,-1 -18,-1l0 36c8,7 10,15 18,16l0 -51z"/>
  <path class="fil0" d="M9483 8189c1,6 2,5 -4,3 -1,20 -14,10 3,29l18 2c-1,-6 -3,-5 3,-3 -2,-7 -4,-6 4,-4 -3,-7 -4,-4 5,-4l-1 2c0,-7 -1,-6 6,-4l1 -11 11 -3 -2 -16 -44 9z"/>
  <path class="fil0" d="M8730 9572c5,3 2,-1 7,4 4,5 6,-4 3,9 -3,9 -10,7 -17,7 -8,4 -32,5 -46,2l54 3 35 2c6,-10 -5,0 3,-7 -17,-5 -13,-22 -17,-41l-33 -1c9,20 9,2 11,22z"/>
  <path class="fil0" d="M9580 8451l0 -28c-9,1 -6,0 -14,4 -12,6 -21,14 -20,30 3,32 28,0 34,-6z"/>
  <path class="fil0" d="M9577 9422c2,0 3,-1 4,-1l0 -35c-5,7 -5,9 -4,36z"/>
  <path class="fil0" d="M9555 9366c-3,-13 -5,-12 -13,-20 -18,-1 -43,-7 -31,13 6,10 21,14 31,18 4,-5 2,-2 7,-7l6 -4z"/>
  <path class="fil0" d="M9317 8495l5 0 6 -31c-40,-7 -39,29 -39,29 11,5 15,3 28,2z"/>
  <path class="fil0" d="M9524 9108l-2 24c26,9 12,-5 31,-10 1,-13 1,-18 2,-27 -16,-3 -1,-2 -31,13z"/>
  <path class="fil0" d="M9474 8372c8,1 26,8 36,-14 5,-10 3,-8 4,-19 -32,2 -31,9 -40,33z"/>
  <path class="fil0" d="M8685 9150c16,-1 7,-9 19,-16 -15,-16 0,-20 -23,-32 -2,5 -2,5 -3,13l-4 15c-3,14 -8,-15 11,20z"/>
  <path class="fil0" d="M9567 8234c7,-12 14,-13 14,-18l0 -1c0,-2 -2,-6 -7,-13 -1,-2 -5,-8 -5,-8 -5,-7 0,-1 -7,-6 -12,12 -9,8 -11,30l16 16z"/>
  <path class="fil0" d="M9202 8288c-1,15 -1,14 5,23 7,11 4,8 20,10l1 -34c-14,-2 -15,-5 -26,1z"/>
  <path class="fil0" d="M8605 9554c-8,14 -9,20 -5,41 3,-15 28,-6 22,-38l-17 -3z"/>
  <path class="fil0" d="M9292 8900c-2,-18 -6,-23 -33,-26l-1 17c1,1 2,2 2,2 1,1 2,2 3,2 6,4 3,3 10,5 6,1 13,0 19,0z"/>
  <path class="fil0" d="M9547 8290c-1,-25 -4,-29 -28,-31 3,26 1,32 28,31z"/>
  <path class="fil0" d="M8611 9502c8,4 16,12 20,19 18,0 3,0 18,-8 -8,-5 -6,-7 -8,-15 -7,3 -5,4 -5,-4l-1 1c-2,1 -4,4 -6,0 -1,-2 -1,-2 -1,-3l-15 2 -2 8z"/>
  <path class="fil0" d="M8774 9930l0 20c6,0 6,-2 4,3 7,2 9,-2 8,11l5 0 0 -33c-6,-4 -3,8 -5,-9l-14 -1 2 9z"/>
  <path class="fil0" d="M9155 8455l18 -1 1 -2c-2,-13 -1,-13 8,-18l0 -10c-15,1 -17,6 -25,13l-2 18z"/>
  <path class="fil0" d="M8979 8477l13 0c6,-10 10,-19 14,-26 -18,-3 -11,-1 -25,1l-2 25z"/>
  <path class="fil0" d="M9281 8330c4,-16 4,-20 0,-34l-11 1c-10,16 0,29 11,33z"/>
  <path class="fil0" d="M9186 8215c-19,1 -16,9 -15,29l16 2 -1 -31z"/>
  <path class="fil0" d="M9257 8373c-2,3 7,5 -7,3l0 5c-1,9 0,1 -7,4l1 1 2 9c16,3 10,-2 24,-5l0 -19 -13 2z"/>
  <path class="fil0" d="M8719 9878l-2 20c18,-5 19,-4 19,-20l-17 0z"/>
  <path class="fil0" d="M9784 11467c-740,0 -1387,-396 -1741,-987l-272 0c377,728 1137,1225 2013,1225 876,0 1636,-497 2013,-1225l-272 0c-354,591 -1001,987 -1741,987z"/>
  <path class="fil0" d="M8075 8344c361,-562 992,-934 1709,-934 717,0 1348,372 1708,934l277 0c-386,-699 -1131,-1172 -1985,-1172 -855,0 -1599,473 -1985,1172l276 0z"/>
  <path class="fil0" d="M8648 8888c1,1 1,2 2,2l49 39c8,6 -3,1 7,5 25,11 51,3 71,-9 18,-13 14,-50 -1,-60 -27,-20 -63,-18 -92,-4 -9,5 -14,3 -24,6 -11,3 -10,6 -20,10l8 11z"/>
  <path class="fil0" d="M8713 8726c-1,1 -2,0 -3,2 0,0 -11,12 -14,18 -3,8 -4,18 -5,28 -2,44 35,46 47,20 3,-6 4,-12 3,-20 -1,-11 -4,-10 -9,-18l-19 -30z"/>
  <path class="fil0" d="M8555 9085c-5,-1 -5,6 -2,-7 -7,2 -6,3 -4,-3 -7,3 -6,4 -3,-3 -8,3 -5,3 -5,-5l2 0c-7,0 -5,2 -3,-5l-18 -2c-10,46 -35,58 13,88 34,-21 18,-25 20,-63z"/>
  <path class="fil0" d="M8723 9375c8,-12 -11,8 5,-4l8 -6c5,-5 5,-6 12,-11 23,-17 38,-33 31,-62l-16 -36 -31 1c9,8 20,9 9,21 -5,6 -16,11 -21,18 -6,10 -6,24 -6,37 0,5 1,15 1,19 1,9 3,16 8,23z"/>
  <path class="fil0" d="M8761 9242c1,1 2,1 2,1l5 3c10,5 12,6 23,8 44,8 67,-27 67,-60 -21,-1 -54,-5 -71,7 -9,6 -24,30 -26,41z"/>
  <path class="fil0" d="M8756 9133c-6,7 -17,22 -19,30 -5,25 3,22 18,19 32,-8 43,-12 44,-51l-43 2z"/>
  <path class="fil0" d="M8956 8946c-7,14 -28,54 -9,75 19,22 28,-4 28,-4 22,-35 -3,-41 -19,-71z"/>
  <path class="fil0" d="M9044 8983c-7,13 -28,54 -9,75 19,22 28,-5 28,-5 22,-35 -3,-40 -19,-70z"/>
  <path class="fil0" d="M8971 8756c-6,-4 -2,-1 -7,-5l-23 -16c-11,-7 -19,-10 -31,-8l-2 6c-2,9 -2,-4 1,18 5,40 -9,45 17,76 13,16 20,17 32,17 9,1 15,-1 23,-2 3,-4 4,-8 7,-11 19,-26 5,-60 -17,-75z"/>
  <path class="fil0" d="M9025 8715c-6,24 -8,39 1,62 14,5 12,5 27,3 2,-5 1,-3 4,-10 4,-11 5,-19 1,-31 0,0 -2,-7 -3,-9 -4,-7 -1,-2 -5,-8l-5 -5c-8,-10 -1,-6 -11,-11l-9 9z"/>
  <path class="fil0" d="M9149 8745c-6,24 -8,39 2,63 14,4 12,4 26,2 2,-5 1,-3 4,-10 5,-11 5,-19 2,-31 0,0 -3,-7 -4,-9 -3,-7 0,-2 -5,-8l-4 -5c-9,-10 -2,-6 -12,-11l-9 9z"/>
  <path class="fil0" d="M8955 8560c0,17 -3,49 3,63 10,22 41,11 45,11 1,-10 3,-20 2,-30 -4,-25 -20,-27 -43,-41l-7 -3z"/>
  <path class="fil0" d="M9312 8377c-48,17 -61,67 -37,76 40,15 52,-40 37,-76z"/>
  <path class="fil0" d="M9200 8450c2,5 2,4 -3,2 2,5 3,4 -2,3 2,5 3,4 -2,2 1,5 2,4 -3,3 3,10 1,3 -2,5l-1 8c-2,8 -6,-6 6,9l3 4 0 -2c9,0 27,4 38,5 2,-2 0,-1 5,-3 14,-8 13,-17 25,-31 -7,-18 -34,-8 -52,-13 -2,8 -2,8 -12,8z"/>
  <path class="fil0" d="M9156 8401c6,4 11,7 17,9 4,-1 9,-3 14,-6 0,0 6,-3 6,-3 10,-7 11,-19 11,-31 1,-9 0,-20 0,-29 -12,2 -10,0 -20,8l-12 10c-17,15 -16,12 -16,42z"/>
  <path class="fil0" d="M9119 8329c8,0 13,1 21,-2 9,-3 23,-20 25,-31 10,-47 0,-54 -15,-76 -15,7 -10,7 -23,15 -10,7 -20,18 -23,26 -5,14 0,33 -2,48l5 3c10,6 8,7 12,17z"/>
  <path class="fil0" d="M9044 8443c3,7 4,6 -3,3 2,7 3,6 -3,4 2,6 3,5 -4,3 3,6 4,5 -3,3 4,14 1,5 -3,7l-1 11c-3,10 -7,-8 8,12l4 5 0 -2c12,0 36,5 51,6 2,-2 0,0 6,-3 19,-11 18,-23 34,-41 -10,-25 -45,-11 -70,-18 -2,10 -2,11 -16,10z"/>
  <path class="fil0" d="M9012 8307c-41,-9 -43,1 -49,6 -17,15 -12,-6 -15,13 -3,17 2,8 5,11 5,5 35,5 43,4 23,-4 16,-11 16,-34z"/>
  <path class="fil0" d="M8957 8416c-41,-8 -43,1 -49,7 -17,15 -12,-7 -15,13 -2,17 2,8 5,10 6,5 35,6 44,4 22,-3 15,-10 15,-34z"/>
  <path class="fil0" d="M9450 8219c-48,17 -61,67 -37,76 40,14 52,-40 37,-76z"/>
  <path class="fil0" d="M9377 8159c-47,17 -61,67 -36,76 40,15 52,-40 36,-76z"/>
  <path class="fil0" d="M9489 8256c-48,17 -61,67 -37,76 40,15 52,-40 37,-76z"/>
  <path class="fil0" d="M9476 8593l-1 1c8,4 3,2 10,7 6,5 1,4 10,7 10,3 20,0 29,-1 0,-19 4,-30 -12,-42 -19,-15 -26,-17 -48,-17 0,1 1,2 1,3 1,0 1,2 2,2 0,1 2,4 3,5 6,11 5,20 6,35z"/>
  <path class="fil0" d="M9449 8501l-1 1c9,5 4,2 11,8 5,4 0,4 10,6 10,3 19,1 28,-1 1,-18 4,-30 -11,-42 -19,-14 -26,-16 -49,-16 1,1 1,2 2,2 0,1 1,2 1,3 1,0 3,3 3,4 6,11 6,20 6,35z"/>
  <path class="fil0" d="M9443 8419l-1 1c9,4 4,2 10,7 6,5 1,4 11,7 10,3 19,0 28,-1 1,-19 4,-31 -11,-43 -19,-14 -26,-16 -49,-16 0,1 1,2 2,3 0,0 1,1 1,2 1,1 2,4 3,4 6,11 5,21 6,36z"/>
  <path class="fil0" d="M9352 8495l-1 -1c0,6 1,4 -5,3 -2,6 0,4 -6,6 1,6 2,6 -3,4 -2,41 -17,39 35,35 4,-19 6,-9 11,-21 3,-8 4,-28 4,-38 -17,10 -8,11 -35,12z"/>
  <path class="fil0" d="M9191 8551c-6,24 -8,39 1,62 14,5 12,5 27,2 2,-5 1,-3 4,-9 5,-11 5,-20 2,-31 -1,-1 -3,-7 -4,-9 -4,-7 -1,-2 -5,-8l-4 -5c-9,-10 -2,-6 -12,-11l-9 9z"/>
  <path class="fil0" d="M9290 8840l-8 -13c-15,0 -26,7 -35,16 -7,8 -7,22 -8,35 5,1 38,-9 44,-13l7 -25z"/>
  <path class="fil0" d="M8820 8999c3,4 3,2 0,6 0,1 -1,2 -1,2 0,1 -1,2 -2,2l2 8c-4,4 -3,1 -9,4l0 3c-1,15 2,33 1,41 11,2 19,7 26,12 3,-10 3,-7 14,-13l4 -29 -7 -10c-8,-10 -13,-22 -24,-30l-4 4z"/>
  <path class="fil0" d="M9164 9332c13,1 10,1 15,-2 33,-17 21,-53 12,-78 -7,13 -17,12 -32,36 -11,19 -6,28 5,44z"/>
  <path class="fil0" d="M9066 9251c13,1 10,1 16,-2 33,-17 21,-53 12,-78 -7,13 -17,12 -32,36 -11,19 -7,28 4,44z"/>
  <path class="fil0" d="M8476 9464c9,5 9,4 10,18l-1 4c8,5 12,4 12,16 8,5 8,3 10,14 6,2 0,-3 7,4 4,3 3,3 5,5 7,1 12,2 17,4 20,5 11,-5 23,-2 35,8 28,-34 16,-55 -4,-6 -1,7 -3,-7 -12,-2 -11,-1 -13,-11l-83 -3 0 13z"/>
  <path class="fil0" d="M8572 9693l28 0c7,-1 21,-8 28,-12l8 -5c-2,-18 0,-9 -16,-17 -12,-7 -6,-9 -20,-11l-38 0c-1,10 -2,9 -8,15l-4 3c13,23 18,13 22,27z"/>
  <path class="fil0" d="M8455 9649l28 0c7,-1 21,-9 28,-13l8 -5c-3,-18 -1,-9 -16,-17 -12,-6 -6,-9 -20,-11l-38 0c-1,10 -2,10 -8,15l-4 3c12,23 18,13 22,28z"/>
  <path class="fil0" d="M8739 9976c-9,-7 -6,-9 -21,-11 -19,-3 -44,-3 -45,19 -2,18 16,30 35,30 17,0 26,-6 43,-17l4 -3c-3,-19 -2,-9 -16,-18z"/>
  <path class="fil0" d="M8871 9732c-2,15 -2,15 -12,20l-3 26c19,-2 26,-7 41,-14 21,-9 19,-21 16,-31 -17,-9 -25,-3 -42,-1z"/>
  <path class="fil0" d="M9251 9885c2,7 4,6 -3,3 3,8 4,7 -3,3 2,7 3,5 -4,3 2,7 4,6 -2,5l-1 45c3,2 5,2 8,6 7,8 4,1 4,12 10,3 27,12 30,23 31,-2 63,5 96,2 0,0 1,-2 2,-2l3 -10c-8,-1 -9,6 -7,-9 -6,-5 -1,4 -4,-6 -3,-7 -2,-5 -2,-10 -1,-1 -5,-4 -7,-7 -7,-10 -2,0 -5,-15 -4,-18 -6,-11 -15,-23 -5,0 -3,1 -2,-5 -11,-3 -6,-1 -13,-7l-11 -9c0,-1 -1,-2 -2,-2 -11,3 -56,2 -62,3z"/>
  <path class="fil0" d="M9194 9893c2,-13 16,-13 27,-13 2,-8 1,-5 6,-9 1,0 1,-1 2,-1l7 -5c1,-1 2,-1 2,-2 -6,1 -6,4 -3,-2 -10,0 -9,-2 -10,-10 -7,-1 -15,-3 -19,-5 -5,-3 -9,-8 -11,-11 -26,2 -17,-15 -50,0 -10,4 -18,7 -20,20 -3,21 7,22 21,31 24,16 24,4 48,7z"/>
  <path class="fil0" d="M8899 10075c-2,-13 -1,-6 3,-7l-1 -8 7 -2c-1,-10 1,-26 1,-36 -9,-5 -10,-5 -13,-19 -9,-1 -17,-5 -26,-1 -13,4 -26,28 -28,41 -1,11 12,38 18,48 21,32 24,4 39,-16z"/>
  <path class="fil0" d="M9006 9866c-1,-9 -1,-4 2,-5l0 -6 5 -2c-1,-6 0,-18 0,-25 -6,-3 -7,-3 -9,-13 -7,-1 -12,-4 -18,-1 -10,3 -19,20 -20,29 -1,8 8,27 13,34 15,23 16,3 27,-11z"/>
  <path class="fil0" d="M8649 9571c3,6 2,2 0,7 -1,1 -1,2 -2,2 0,1 -1,2 -2,2 0,8 1,10 -4,16 10,7 23,-3 37,2 -2,-7 -3,-6 4,-3 1,-7 -2,-4 2,-9l8 1c-3,-14 -1,-4 4,-6 -8,-38 8,-22 -32,-29 -10,1 -15,5 -15,17z"/>
  <path class="fil0" d="M8606 9437c9,5 8,4 9,17l0 5c8,4 12,4 11,16 8,5 9,3 11,13 6,3 0,-2 7,4 3,4 3,3 4,6 8,1 12,2 18,4 19,4 11,-5 23,-2 35,8 28,-34 15,-55 -3,-6 0,7 -3,-7 -12,-2 -10,-1 -13,-12l-82 -2 0 13z"/>
  <path class="fil0" d="M8850 9692c-9,-6 -6,-8 -22,-10 -19,-3 -43,-3 -45,19 -1,18 16,30 36,30 16,0 26,-6 43,-17l3 -3c-2,-19 -1,-9 -15,-19z"/>
  <path class="fil0" d="M8901 9454c-9,-7 -5,-9 -21,-11 -19,-3 -43,-3 -45,19 -2,18 16,30 35,30 17,0 26,-6 43,-17l4 -3c-3,-19 -2,-9 -16,-18z"/>
  <path class="fil0" d="M8671 9313c-9,-6 -5,-8 -21,-11 -19,-3 -44,-3 -45,20 -2,17 16,29 35,29 17,1 26,-5 43,-17l4 -3c-3,-19 -2,-8 -16,-18z"/>
  <path class="fil0" d="M8424 9944c23,2 83,10 103,-5 10,-8 47,-46 21,-68 0,0 -8,-6 -8,-6 -10,-7 -19,-9 -34,-8 -15,1 -39,18 -40,19l-16 23c-5,6 -24,35 -26,45z"/>
  <path class="fil0" d="M9018 10085c-2,-13 -2,-6 3,-7l-1 -8 7 -2c-1,-10 0,-26 1,-36 -9,-5 -11,-5 -13,-19 -10,-1 -17,-5 -26,-2 -13,5 -26,29 -28,42 -2,11 12,38 18,48 21,31 23,4 39,-16z"/>
  <path class="fil0" d="M8752 8446c4,17 -2,20 1,36 2,11 7,14 13,23 19,30 27,12 54,13 7,-18 6,-41 6,-64l2 -4c-9,0 -6,1 -4,-8l-9 -2 -5 -20c-5,1 -6,3 -3,-2 -10,1 -8,-1 -10,-13l-11 -2 -1 -12c-10,5 -16,12 -19,24 -5,16 -5,18 -14,31z"/>
  <path class="fil0" d="M8675 8496c4,17 -1,20 1,36 2,10 7,13 13,23 19,30 27,12 54,13 8,-18 6,-41 6,-64l2 -4c-9,0 -6,1 -4,-8l-9 -2 -5 -20c-5,1 -6,3 -3,-2 -10,1 -8,-1 -10,-13l-11 -3 -1 -12c-10,6 -15,13 -19,25 -5,16 -5,18 -14,31z"/>
  <path class="fil0" d="M8595 8583l-2 5c0,0 0,1 -1,2 0,0 -1,1 -1,2l-4 3c-6,5 -3,2 -9,4l5 1c21,11 1,14 42,14 18,0 8,3 23,-3 1,-3 8,-14 8,-20 0,-1 -18,-32 -41,-14 -10,8 -1,9 -20,6z"/>
  <path class="fil0" d="M8534 8687c-1,1 -3,1 -3,2 0,1 -11,12 -14,19 -3,8 -5,17 -5,27 -3,45 34,46 47,21 3,-7 4,-12 3,-21 -2,-10 -4,-9 -9,-18l-19 -30z"/>
  <path class="fil0" d="M8465 8931c-5,-1 -5,6 -3,-7 -6,2 -5,3 -3,-3 -7,3 -6,4 -3,-3 -8,3 -5,3 -5,-6l2 1c-7,0 -5,2 -3,-5l-18 -3c-10,47 -35,59 13,89 34,-21 18,-25 20,-63z"/>
  <path class="fil0" d="M8384 8940c-21,-1 -15,-5 -26,-9 -10,-4 -19,-1 -29,0 8,3 6,4 9,13 4,13 5,16 14,25 3,4 0,3 8,6 10,4 23,1 25,-2 5,-5 0,-26 -1,-33z"/>
  <path class="fil2" d="M9630 9936c0,-23 5,-56 8,-74 10,-61 16,-54 77,-89 72,-41 173,11 216,30 18,-2 36,-3 56,-3 -25,-5 -46,-14 -51,-29 44,-21 177,-18 256,-22 15,-8 30,-17 44,-25 -50,3 -92,-1 -25,-27 45,-17 38,-10 82,-34 38,-21 44,-19 89,-8 -1,-1 -2,-2 -3,-2l-16 -17c23,-1 46,-4 58,-23l5 -11c27,0 42,9 73,9l0 -5c-23,0 -47,5 -54,-19 22,0 19,-6 42,-3 53,7 63,-16 104,-7 -7,-16 4,-21 -30,-15 -38,6 -55,14 -92,6 5,-4 2,-3 12,-8l24 -10c21,-8 63,-9 76,-26 -16,4 -13,5 -28,-1 -10,-4 -15,-6 -21,-14 9,-13 29,-22 49,-21 7,1 3,0 13,4 1,0 12,6 12,6 9,4 4,3 15,6 6,1 7,1 13,1 -1,-1 -2,-2 -3,-2l-6 -3c-6,-3 -4,-2 -10,-5 -12,-8 -7,-3 -15,-15 21,0 17,1 30,-9 -26,0 -34,5 -57,11 -28,6 -76,16 -105,5 -17,-7 -28,-14 -33,-31 21,-5 34,-10 58,-16 35,-9 14,-11 44,-3 -10,-16 -15,-19 19,-20 17,-1 37,0 54,0l0 -5c-65,0 -77,-4 -137,19 -36,13 -91,15 -139,15 31,-27 52,-38 92,-48 24,-5 22,-12 55,-12 25,0 21,14 47,17 4,-18 5,-11 14,-25 -20,6 -8,10 -24,10 -30,0 -14,-4 -16,-7 -2,-5 -5,-7 5,-18 22,-26 40,-21 69,-14 3,-8 -4,0 -10,-14 31,-7 55,-10 93,-10l0 -5c-13,0 -125,3 -135,-1 -14,-4 -6,5 -11,-9 -3,-7 -11,3 3,-1 13,-5 -6,3 4,-1 17,-7 1,3 3,-2l29 -20c-22,1 -17,4 -37,12 -63,25 -35,-3 -89,-1 -39,1 -141,23 -160,18l0 -9c16,-4 20,-8 33,-16 122,-75 115,-9 233,-9 3,-8 -4,0 -9,-14 30,0 43,-5 68,-5l-7 -3c-16,-8 -8,-3 -3,-16 -33,17 -29,8 -58,14 11,-41 69,-39 97,-63 -15,1 -23,6 -38,11 -62,21 -24,9 -83,4 5,-23 24,-20 48,-24 18,-4 45,-9 63,-10 -9,-13 -13,-9 -43,-5 -16,2 -25,8 -41,12 -10,3 -17,4 -23,7 -43,17 -6,10 -63,10 19,-28 55,-41 88,-44 -22,-30 -116,50 -137,63l-6 3c-35,24 -68,39 -108,57 -58,27 -71,68 -167,18 3,-27 29,-42 50,-52 49,-23 99,-37 149,-55l65 -37c16,-9 19,-10 39,-14 48,-10 114,-43 139,-32 1,1 2,2 3,2l6 4c2,0 6,2 7,2 16,6 23,6 37,12 21,9 42,23 58,39 1,-1 0,-2 0,-2 0,0 0,-2 0,-2 0,-12 0,-8 10,-15 -39,0 -33,-8 -56,-22 -24,-13 -30,-4 -46,-27 24,-2 66,3 49,-10l-68 0c-101,0 -47,25 -141,25 16,-30 95,-81 131,-64 -5,-12 -15,-10 -10,-20 3,-7 8,-7 10,-8 1,-1 5,-3 7,-3l6 -4c17,-9 36,-13 60,-13 -1,-1 -3,-1 -3,-2l-16 -13c10,-5 19,-7 24,-19 -13,3 -11,6 -25,14l-32 16c-14,7 -17,6 -30,14 -10,7 -12,11 -25,14 6,-21 25,-33 42,-46 16,-12 41,-23 50,-36 -24,6 -53,29 -72,44 -7,6 -12,8 -19,15 -10,10 -8,11 -16,22 -15,20 -41,34 -67,40 4,-45 47,-76 80,-99 5,-3 37,-20 37,-23l-26 10c-26,14 -47,27 -67,49 -39,44 -23,58 -65,105 -47,52 -42,52 -119,70 13,-26 20,-64 41,-86 10,-11 28,-13 44,-18 15,-5 33,-9 46,-18 -24,2 -58,10 -78,20 13,-54 46,-49 87,-49l0 -5c-30,0 -26,6 -48,0 4,-17 17,-19 31,-26 4,-2 7,-4 10,-6l123 -60 20 -14c-16,4 -18,1 -27,3 -9,3 -11,8 -26,11 9,-13 24,-20 29,-34 -13,9 -19,11 -30,24 -33,36 -35,16 -79,27l-38 11c-42,11 -48,25 -81,40 -19,10 -44,23 -63,24 0,-7 2,-14 0,-19 -10,5 -14,10 -29,10 -25,0 -13,1 -21,-7l-4 -8c-35,31 -41,-8 -77,9 -19,10 -16,13 -37,22 -18,8 -21,8 -36,18 5,-18 21,-36 37,-46l130 -69c28,-12 65,-19 87,-34 18,-11 28,-23 52,-26l54 1c23,2 46,36 62,14 -43,0 -12,-18 -49,-24 -26,-4 -65,-8 -88,-2 -6,1 1,-2 -11,3 -16,8 -11,7 -24,15 -25,15 -40,7 -61,17 1,-21 4,-15 5,-34 27,0 42,6 53,-9 -27,2 -56,16 -29,-25 36,9 24,0 59,0l0 -5c-26,0 -28,6 -39,-9 22,-2 8,-2 28,-11 9,-4 15,-5 24,-10 83,-36 45,-40 104,-43l14 0c5,0 9,1 14,1 -12,-12 -3,-15 -29,-15 16,-24 11,-27 45,-33 15,-2 22,-3 34,-5 20,-3 14,2 28,-10 -20,0 -35,3 -51,7 -20,5 -22,-7 -36,-2 -6,2 -26,16 -32,21 -25,22 -31,28 -61,12 7,-12 11,-18 21,-27l49 -25c9,-6 3,-1 8,-6 -37,1 -52,20 -77,35 -3,1 -7,2 -10,4 12,-55 36,-55 58,-87 -21,7 -33,24 -45,42l-22 41c-21,46 -67,67 -118,67 5,-16 17,-21 27,-31 8,-7 23,-10 12,-17l-54 47c-49,45 -21,58 -110,94 -23,9 -48,26 -74,28 9,-12 17,-22 27,-36 12,-19 9,-25 24,-40 20,-20 50,-36 66,-59 22,5 61,12 68,-15 -21,11 -18,10 -49,10 5,-4 0,0 8,-7 4,-2 5,-4 9,-6 7,-5 12,-8 18,-11l65 -41c14,-10 39,-19 26,-28 -19,17 -46,42 -72,44 6,-12 24,-39 35,-47 13,-8 45,-12 62,-16 -16,-10 -38,0 -56,0l-2 -10c-9,13 -5,13 -25,15 4,-12 1,-9 11,-18 7,-7 26,-7 14,-16 -6,5 1,0 -9,6 -22,16 -48,24 -72,35 -15,6 -33,11 -46,22 -26,-10 22,14 -8,-7 -14,-10 -10,8 -35,22 5,-21 12,-24 27,-36 133,-105 71,-43 191,-71 -6,-4 1,-2 -11,-4 -9,-1 -5,0 -11,1 -30,5 -23,1 -56,-2l0 -10c28,-6 18,-13 38,-21 13,-5 33,-3 50,-3l0 -5c-28,0 -49,-7 -63,0 2,-25 3,-6 9,-29 -18,14 -17,38 -43,53l-59 34c2,-22 14,-33 28,-45 31,-27 16,-9 11,-22 6,-5 35,-38 39,-44 -10,4 -16,9 -23,16l-49 67c-1,1 -2,2 -2,3 -16,26 -29,60 -62,69 0,-23 0,-16 7,-32 12,-25 41,-50 27,-60 -17,32 -38,57 -47,94 -6,25 1,12 -15,28 -30,29 -41,38 -83,53 -9,4 -23,7 -34,9 1,-7 2,-10 6,-18 6,-10 -1,2 6,-8 10,-12 13,-25 26,-33 24,-14 39,-11 64,-33 -16,4 -4,0 -17,8 -11,6 5,-1 -12,7 -9,4 -24,7 -34,9 1,-14 5,-9 7,-21 0,-2 3,-2 3,-4l-6 -4c-12,19 -25,39 -39,53 -4,5 -6,8 -10,14l-19 45 -9 0c-9,-110 32,-100 80,-168 4,-6 9,-13 14,-19 16,-18 41,-20 68,-49 1,-1 1,-2 2,-2 1,-1 2,-2 3,-3 20,-17 41,-4 66,-26l-54 0c-13,25 -34,42 -63,49 22,-42 2,-34 43,-64l27 -22c14,-13 26,-12 32,-26 -24,12 -51,36 -78,44 6,-12 6,-22 13,-37 9,-21 12,-13 17,-31 -8,9 -15,15 -21,27 -22,37 -14,50 -54,112 -17,26 -51,81 -81,84 0,-32 11,-39 23,-60 35,-64 -31,-35 44,-111 27,-27 40,-19 50,-33l-25 0c16,-21 9,2 25,-19 -30,0 -23,3 -36,22 -13,17 -29,32 -42,39 -17,10 3,6 -48,31 1,-70 40,-76 63,-106 7,-8 2,-5 8,-12 5,-7 1,-3 7,-8 7,-5 35,-14 48,-15 -9,-5 -17,-1 -29,0 4,-16 20,-30 29,-44 -30,8 -52,47 -73,68 -11,11 -5,13 -29,15 2,-31 27,-55 43,-78 4,-5 4,-5 9,-11 7,-6 16,-6 6,-13 -19,28 -59,56 -78,121 -9,33 -16,60 -33,88 -12,17 -13,33 -34,39 0,-35 18,-111 31,-134 22,-42 8,-85 75,-85l0 -10c-17,4 -16,5 -39,5 4,-14 3,-10 13,-21 7,-7 22,-10 12,-17 -1,0 -2,1 -3,2l-5 4c-18,15 -23,35 -41,47 0,-44 12,-62 15,-97 -12,13 -13,30 -18,50 -5,26 -6,32 -6,62 -1,36 -15,47 -25,77 -2,4 -3,8 -5,14l-4 10c-14,-56 -11,-123 3,-182 6,-27 57,-44 64,-70 -24,26 -43,21 -52,25 -10,4 -42,41 -50,52 -10,12 3,6 -24,20 3,-29 19,-52 34,-73 8,-10 26,-11 15,-19 -4,3 -8,7 -14,11 -6,4 -9,5 -15,8 0,-1 1,-12 1,-12 0,-8 2,-1 -1,-7 -13,25 -6,34 -15,53 -33,-24 11,-75 30,-96l-1 -10c-13,20 -32,39 -48,58l-8 -42c-5,-20 0,-4 -7,-12 -1,20 -5,11 -5,29 0,31 42,39 14,164 -2,7 -2,10 -6,18l-8 12c-6,9 -13,17 -24,20 0,-28 3,-24 11,-43 4,-11 6,-28 9,-40 -13,14 -13,23 -18,40l-24 64c-1,-1 -1,2 -2,3 0,-27 -2,-55 1,-81 5,-32 -14,-92 8,-123 5,-7 8,-4 1,-9 -2,2 -12,19 -13,20 -11,4 -5,-2 -7,-15 -3,-22 0,-33 -14,-44 0,54 14,86 14,141 -23,-7 -9,-8 -23,-25 -15,-17 -11,-1 -27,-22 -16,-21 -10,-50 -27,-70 5,22 14,40 14,63 -2,0 -11,-2 -11,-2 -10,-1 -2,-1 -8,2 12,3 14,5 24,10 0,55 10,85 39,121 21,27 32,90 26,123 -5,30 -13,58 -31,71 -22,-15 -6,-18 -29,-24 0,-36 5,-54 26,-75 1,-1 5,-4 5,-5 1,-2 4,-2 4,-3l-26 15c-3,-13 -2,-11 -9,-19 0,30 -5,46 -5,68 -50,-33 -60,-99 -48,-155l10 -25c0,-1 1,-2 1,-3 6,-17 1,-21 -5,-37 -6,-14 -7,-20 -7,-37l-4 0c0,30 4,40 4,72 0,17 -3,19 -4,34 -5,-3 -8,-7 -10,-12l0 66c2,17 5,35 10,53 -3,-1 -6,-2 -10,-4l0 25c13,13 21,31 24,66 -16,-6 -10,2 -24,-9l0 0 0 22c12,2 24,6 29,11l24 54 -5 92c-9,-6 -7,-5 -15,-13 -5,-5 -2,-3 -7,-8 -19,-24 16,18 -4,-6l-22 -30 0 43 61 89c1,0 2,2 2,3 64,92 39,33 39,184 0,32 4,36 -1,72 -2,14 -13,38 -19,49l-14 -9c-1,-1 -2,-2 -3,-2 -21,-17 -49,-30 -65,-49l0 44 44 25c33,22 37,31 42,66 4,32 -20,173 -52,197 -1,-30 -22,-72 -34,-98l0 176c5,25 10,46 10,53l-5 155 -5 -6 0 1116c70,-7 59,9 82,9 9,0 1,0 10,-2l6 -2c4,-1 13,2 13,-8 0,-22 -23,-66 -29,-102 -13,-77 -12,-107 -13,-179 -1,-61 -11,-110 -11,-176 0,-23 0,-37 2,-51l-2 -115 -5 2c0,-24 2,-43 4,-61l0 0c2,-21 4,-40 6,-61l-5 -102zm180 -228c27,-6 54,-13 83,-19 24,-5 55,-14 82,-15l0 20c0,73 -109,63 -146,48 -17,-7 -19,-10 -19,-34zm247 -43c96,0 32,1 98,-9l49 -9c15,-2 29,6 47,8l0 10c-21,4 -46,12 -66,21 -15,8 -13,8 -29,14 -69,28 -79,33 -177,33 2,-15 4,-19 8,-32 3,-9 2,-6 3,-12 4,-23 4,-18 31,-22 14,-2 20,-2 36,-2zm-58 -15c5,-21 11,-42 32,-50 10,-4 104,-18 127,-34 22,-15 29,-13 64,-13 2,-7 0,-1 -5,-15 40,-9 18,-24 74,4 45,24 105,49 120,55 -13,48 -54,22 -94,42 -54,27 -71,2 -92,-6 -30,-12 -53,12 -139,12 24,-20 36,-4 102,-44 29,-17 63,10 116,10 -15,-9 -13,-1 -16,-8 0,-1 -2,-1 -3,-1l44 0 0 -5c-21,0 -33,1 -50,-4 -14,-4 -81,-13 -93,-9 -7,3 -16,13 -30,19 -47,20 -109,36 -157,47zm228 -97c-8,7 0,3 9,3 18,0 -7,-5 -9,-3zm-587 199c15,-32 1,-139 28,-171l54 -52c18,-15 66,-34 68,-34 53,0 54,14 102,14 -5,21 -32,51 -47,80l-35 71c-16,30 -135,89 -170,92zm480 -218c-7,-11 -13,-14 1,-23 22,-12 77,-7 101,-2 -15,20 -90,47 -121,54 -17,4 -26,9 -49,9l27 -26c15,-13 16,-12 41,-12zm-184 -25c67,0 94,-4 165,-4 -24,32 -66,27 -111,102 -23,38 -11,33 -57,50 -20,7 -65,12 -89,12 1,-20 6,-19 18,-45 11,-24 38,-69 55,-90l19 -25zm393 -34l0 -9c19,0 44,-2 63,-1 28,2 11,-2 25,9 13,10 40,20 63,30 12,5 32,10 48,10 1,14 0,11 4,20 -28,6 -38,10 -63,23 -27,14 -69,4 -106,-5 -15,-3 -72,-29 -88,-43 23,1 42,5 73,5l0 -5c-33,0 -48,6 -63,-14 -11,4 -6,-3 -10,10 -23,-1 -21,-4 -34,-15 18,0 101,-2 115,2 19,6 6,7 26,13 -8,-22 -32,-25 -53,-30zm-88 -126c56,0 118,-34 174,-40 49,-4 13,8 50,11l0 10c-15,4 -40,32 -64,39 -3,-7 -1,-7 0,-20 -51,35 1,31 -92,92 -28,18 -125,39 -145,39 -80,0 -38,0 -78,-9l12 -8c76,-42 94,-7 114,-37l-29 6 0 -10c19,-1 13,-4 34,-5 79,-3 33,-5 69,-9 24,-2 12,13 18,-5 -49,0 -67,-5 -87,-5 13,-11 14,-14 32,-22l31 -17c-15,1 -31,9 -44,14 -6,3 -14,6 -19,10 -8,5 -7,5 -18,11 -84,49 -80,34 -119,52 -56,25 -27,39 -125,39 7,-27 34,-16 52,-40 38,-49 23,-22 60,-47 -47,1 -98,65 -131,68 8,-18 3,-21 5,-43 2,-14 6,-21 9,-35 -15,10 -30,48 -35,67 -10,42 -14,20 -16,19 -10,-3 -28,-9 -36,-13 3,-15 2,-12 11,-23 65,-73 70,-54 90,-66 18,-11 3,-6 19,-14 7,-4 14,-5 22,-7 37,-8 31,-10 52,-16 20,-6 32,-5 53,0 45,12 1,4 57,11l74 3zm-288 34c0,0 0,0 0,0 5,-1 -3,-12 -3,0 0,11 0,0 3,0zm469 -49l-21 15c5,-2 17,-6 18,-12 0,-1 3,-1 3,-3zm-25 54c7,-10 28,-23 42,-31 28,-15 9,-2 32,-20 13,-10 -8,-7 13,-7 32,0 24,3 44,5l-54 39 -77 14zm116 -126c-2,23 5,15 -19,10 5,-5 -1,-1 9,-6 2,-1 7,-3 10,-4zm-63 -53c24,0 72,7 87,14 -7,12 -7,9 -19,20 -48,42 -72,4 -112,-5 5,-19 20,-29 44,-29zm-791 305c0,-55 4,-52 15,-92 11,-43 38,-108 62,-146 31,-51 32,-95 86,-123 15,-8 20,-11 35,-18 11,-6 18,-10 33,-16 19,-6 22,-8 38,-16 12,-5 23,-8 36,-12 31,-11 42,-18 83,-18 -2,24 -7,19 -15,38 -10,25 -11,62 -20,87 -4,11 -8,25 -13,35 -6,11 -13,20 -19,34l-12 22c-22,40 -12,48 -47,74 -12,9 -21,13 -32,22 -102,79 -85,47 -134,75 -12,7 -20,10 -32,16 -48,26 -38,36 -64,38zm413 -441c32,0 51,-4 77,-10l-43 39c-1,1 -2,2 -2,3l-33 40c-12,16 -13,14 -29,25 0,-44 15,-69 30,-97zm67 24c5,-16 7,-15 24,-30 21,-17 30,-14 55,-22 55,-18 18,-21 106,-21 -31,42 -34,49 -61,104 -9,19 -16,44 -28,55l-37 21c-26,11 -69,22 -99,46 -45,36 -36,46 -62,60 -12,6 -42,19 -58,20 5,-19 11,-29 19,-45 57,-116 24,-47 86,-122l7 -8c21,-26 13,-11 23,-19 17,-14 -9,-15 56,-33l42 -16c-32,0 -45,9 -73,10zm81 -12c0,0 1,0 1,0 19,0 -6,-5 -9,-3 -8,9 4,2 8,3zm-3 -62c-20,2 -1,2 -10,-4l20 0c-6,4 0,4 -10,4zm-78 21c17,-31 28,-29 54,-29 -6,22 -30,28 -54,29zm-67 9c7,-28 45,-34 72,-34l-22 27c-10,12 -14,7 -50,7zm383 -97c-22,5 -32,13 -52,22 -46,21 -25,21 -45,7 -8,30 -30,28 -58,34 11,-41 67,-38 92,-38 -14,-12 -26,-10 -34,-15 24,-2 69,-29 97,-10zm-330 -92c44,-42 42,-50 92,-39l-29 59c-5,10 -14,17 -24,24l-60 37c-1,0 -2,1 -3,2 -7,5 -6,6 -20,9 2,-23 8,-15 10,-39 -16,12 -9,39 -66,80 -27,18 -14,10 -31,27 -7,7 -7,7 -14,15 -20,22 -45,31 -73,44 -13,5 -74,27 -88,29 0,-38 -5,-42 17,-61 8,-7 3,-2 11,-9 1,-1 3,-4 4,-5 1,-1 2,-2 3,-2 25,-25 14,-20 44,-38 46,-28 70,-66 106,-84l82 -35c20,-7 23,1 30,0 18,-4 6,-9 53,-9l-44 -5zm-19 24c13,-8 -5,-1 -5,0 -5,14 5,0 5,0zm-5 10c-8,8 -7,6 -10,19 7,-8 7,-6 10,-19zm72 -87c4,-38 57,-39 88,-39 -23,34 -8,4 -34,44 -25,0 -27,-5 -54,-5zm-247 126c0,-31 5,-65 17,-85 6,-12 18,-18 21,-25 6,-14 -15,-3 26,-54 13,-17 6,-12 25,-23 35,-20 19,1 66,-22 5,17 9,18 29,20 0,0 -2,1 -2,2 -1,0 -2,2 -3,2l-28 26c0,0 -1,2 -2,2 -1,1 -1,2 -2,3 -9,9 -41,34 -55,51l-24 35c-7,8 -4,2 -11,13 -18,23 -26,39 -57,55zm354 -155c4,-7 18,-25 24,-30 13,-12 13,-6 25,-24 9,5 26,9 39,10 -9,11 -23,18 -42,27 -9,5 -37,15 -46,17zm-563 184c0,-12 8,-15 17,-23 0,0 1,-1 2,-2l18 -16c14,-13 24,-22 37,-35l30 -29c6,-6 3,-4 9,-10 24,-21 63,-42 89,-71l29 -25c59,-34 88,-36 109,-46 -7,28 -23,14 -40,19 -11,3 -18,10 -28,20 -28,31 -73,92 -77,131 -5,52 -7,88 -68,121 0,-22 4,-16 3,-34 0,-30 -9,-9 1,-49 -4,4 -10,10 -12,11 -8,5 -7,3 -7,3l-5 1c12,25 -8,63 -17,85 -11,30 -11,60 -21,86 -21,55 -11,51 -53,112 -10,15 -13,23 -25,28 0,-69 -4,-80 8,-143 10,-57 1,-86 1,-134zm165 -73c-6,4 -10,7 -17,12l-17 12c35,-9 32,-18 34,-24zm185 -170c5,-24 8,-23 48,-39 65,-26 52,-38 102,-33 -3,6 -4,9 -9,15l-32 46c-10,12 -14,12 -26,17 -8,4 -24,14 -30,14 -27,0 -5,-31 -53,-20zm-386 -80c27,42 18,128 7,173 -13,-10 -41,-63 -46,-85l-12 -119c14,3 44,20 51,31zm-46 -80c14,10 20,20 24,39 -23,-5 -18,-9 -34,-19l10 -20zm-10 -19c0,26 3,22 -14,34 -8,-15 -13,-32 -15,-53 22,7 4,12 29,19zm92 281c0,-26 3,-92 18,-114l34 -53c26,-35 97,-130 129,-151l43 -26c-3,35 0,47 -14,64 -40,52 -16,60 -29,97l-10 29c-14,55 8,79 -18,108l-42 40c-4,3 -7,6 -11,9l-23 21c0,1 -1,2 -2,2 -15,15 -58,57 -75,62 0,-18 3,-31 4,-40l-4 -48zm-77 -567c48,25 43,45 43,102 -13,-16 -20,-22 -30,-43 -15,-32 -13,-26 -13,-59zm204 -10c-3,21 -7,30 -10,53 -3,22 -10,27 -10,49 0,41 10,71 10,92 0,81 9,78 -21,129 -1,2 -3,5 -4,6 -15,22 -74,86 -77,98 -53,-4 -36,-103 -30,-136 3,-12 3,-17 7,-28 27,-86 -11,-61 33,-118 44,-58 23,-46 42,-83 8,-15 41,-50 50,-57 5,-4 1,-2 10,-5zm14 -39c1,0 1,2 2,2l0 0c0,-1 -2,-1 -2,-2z"/>
  <path class="fil0" d="M8890 8929c3,4 2,2 0,6 0,0 -1,2 -1,2 -1,1 -2,1 -2,2l1 8c-3,4 -2,1 -9,4l1 3c-1,15 2,32 1,41 10,2 19,7 26,12 2,-10 3,-8 13,-13l5 -30 -7 -9c-8,-10 -13,-22 -24,-31l-4 5z"/>
  <path class="fil0" d="M8712 8950c3,4 3,2 0,6 0,0 -1,2 -1,2 0,1 -1,1 -2,2l2 8c-4,4 -3,1 -10,4l1 3c-1,15 2,32 1,41 10,2 19,7 26,12 2,-10 3,-8 14,-13l4 -30 -7 -9c-8,-10 -13,-22 -24,-31l-4 5z"/>
  <path class="fil0" d="M9129 8962c-7,14 -28,54 -10,75 20,22 28,-4 28,-4 22,-35 -3,-41 -18,-71z"/>
  <path class="fil0" d="M9121 8881c1,7 3,5 -4,4 5,25 -7,19 -13,42l29 -5c10,-4 11,-11 26,-11 -2,-7 -3,-5 5,-5l-1 -6c-2,-11 2,-21 -12,-22 -14,-2 -17,4 -30,3z"/>
  <path class="fil0" d="M9018 8815c-5,11 -23,45 -7,62 16,19 23,-3 23,-3 19,-29 -2,-34 -16,-59z"/>
  <path class="fil0" d="M9005 8902c-7,14 -28,55 -9,75 19,22 28,-4 28,-4 22,-35 -3,-41 -19,-71z"/>
  <path class="fil0" d="M9059 8864c2,7 3,5 -3,4 5,25 -7,19 -13,41l29 -4c10,-4 11,-11 26,-11 -2,-7 -3,-5 5,-5l-1 -6c-2,-11 1,-21 -12,-22 -14,-2 -17,4 -31,3z"/>
  <path class="fil0" d="M8993 9218c13,0 10,1 16,-2 33,-17 20,-53 12,-78 -7,12 -18,12 -32,36 -11,19 -7,28 4,44z"/>
  <path class="fil0" d="M8954 9187c2,-13 2,-10 1,-15 -10,-37 -49,-31 -75,-28 11,9 8,20 29,39 17,14 27,12 45,4z"/>
  <path class="fil0" d="M8627 9118c11,1 20,7 28,11l-1 -2c6,-8 8,-4 13,-11 8,-15 2,-35 -11,-50 -6,-7 -12,-9 -15,-17 -3,9 -2,10 -6,18 -3,5 -7,9 -9,13 -5,15 2,29 1,38z"/>
  <path class="fil0" d="M8703 9108c17,-1 8,-9 20,-16 -15,-16 0,-20 -23,-32 -2,5 -2,5 -3,13l-4 15c-3,14 -9,-15 10,20z"/>
  <path class="fil0" d="M8558 9086c11,1 20,7 28,12l0 -3c5,-8 8,-4 12,-11 9,-15 2,-35 -11,-50 -5,-6 -11,-8 -14,-17 -4,9 -2,11 -7,18 -2,5 -7,9 -8,13 -5,15 1,29 0,38z"/>
  <path class="fil0" d="M8494 9089c-5,0 -5,6 -3,-7 -6,3 -6,4 -3,-2 -7,2 -7,3 -4,-4 -7,3 -4,4 -4,-5l1 1c-6,0 -5,1 -3,-6l-18 -2c-9,47 -35,59 13,89 35,-22 18,-26 21,-64z"/>
  <path class="fil0" d="M8812 8852l-1 -24 2 -2c-11,-1 -10,-5 -13,-11 -20,0 -33,-4 -47,-8 0,25 0,10 8,23l5 11c1,0 1,1 1,2 8,16 19,-2 25,17 1,0 3,-2 3,-1l17 -7z"/>
  <path class="fil0" d="M8622 8869l-1 -23 2 -2c-11,-2 -10,-5 -13,-11 -20,-1 -33,-4 -47,-8 0,25 0,10 8,23l5 10c0,1 1,2 1,3 8,16 19,-2 25,17 1,0 2,-2 3,-2l17 -7z"/>
  <path class="fil0" d="M8687 8777l-1 -24 1 -2c-11,-1 -10,-5 -12,-11 -20,0 -34,-3 -48,-7 1,25 0,9 9,23l5 10c0,1 0,2 1,3 7,16 18,-2 25,17 1,-1 2,-2 2,-2l18 -7z"/>
  <path class="fil0" d="M8895 8750l-1 -24 1 -2c-11,-1 -10,-5 -12,-11 -20,0 -34,-3 -48,-7 1,25 0,9 9,22l5 11c0,1 0,2 1,2 7,17 18,-1 25,18 1,-1 2,-3 2,-2l18 -7z"/>
  <path class="fil0" d="M8802 8928c-15,1 -13,1 -20,13 -5,7 -9,14 -10,19 -6,34 26,23 32,23 0,-20 3,-37 -2,-55z"/>
  <path class="fil0" d="M9333 8247c-39,14 -51,56 -30,63 33,12 43,-33 30,-63z"/>
  <path class="fil0" d="M9417 8238c0,-25 -3,-29 -28,-31 4,25 2,31 28,31z"/>
  <path class="fil0" d="M9378 8336c8,1 26,8 36,-14 5,-10 3,-8 4,-19 -33,2 -31,9 -40,33z"/>
  <path class="fil0" d="M9394 8235c-39,14 -51,56 -30,63 33,13 43,-33 30,-63z"/>
  <path class="fil0" d="M9311 8321c-32,12 -41,46 -25,52 27,10 35,-28 25,-52z"/>
  <path class="fil0" d="M9253 8310c-32,12 -41,46 -25,52 27,10 36,-27 25,-52z"/>
  <path class="fil0" d="M9250 8306c3,-16 3,-20 -1,-35l-11 2c-10,16 0,29 12,33z"/>
  <path class="fil0" d="M9188 8296c-32,11 -42,45 -25,51 27,10 35,-27 25,-51z"/>
  <path class="fil0" d="M9208 8236c-33,11 -42,45 -25,52 27,9 35,-28 25,-52z"/>
  <path class="fil0" d="M9232 8214c-19,1 -17,10 -16,30l16 1 0 -31z"/>
  <path class="fil0" d="M9137 8670l0 8 -7 2 -1 9 1 30c9,1 11,3 22,3 4,-10 9,-7 8,-22 -2,-15 -6,-5 -10,-21 -6,-2 -6,-4 -8,-10l-3 -1c1,4 2,4 -2,2z"/>
  <path class="fil0" d="M9058 8673c9,13 22,38 33,44 19,12 36,-11 38,-13 -3,-8 -7,-16 -13,-23 -15,-16 -27,-10 -52,-9l-6 1z"/>
  <path class="fil0" d="M8987 8654c9,12 23,37 34,44 18,11 35,-12 38,-14 -4,-7 -8,-16 -14,-22 -14,-17 -27,-10 -51,-9l-7 1z"/>
  <path class="fil0" d="M9365 8709l-2 -2c0,6 2,5 -4,3 -2,7 0,4 -7,7 1,6 3,5 -3,3 -1,41 -16,39 36,35 4,-19 6,-9 10,-20 4,-9 4,-28 5,-38 -18,9 -8,11 -35,12z"/>
  <path class="fil0" d="M9395 8575l-2 -2c0,6 2,5 -4,3 -2,6 0,4 -7,7 1,5 3,5 -3,3 -1,41 -16,39 36,35 4,-19 6,-9 10,-20 4,-9 5,-28 5,-38 -18,9 -8,11 -35,12z"/>
  <path class="fil0" d="M9402 8639l-1 -2c0,6 1,5 -5,4 -2,5 1,3 -6,5 1,6 3,6 -2,4 -2,39 -16,37 33,33 4,-18 6,-9 10,-19 3,-8 4,-27 4,-37 -16,10 -8,11 -33,12z"/>
  <path class="fil0" d="M9208 9013c10,4 28,8 38,0 12,-10 19,-20 22,-32 7,-26 6,8 10,-56 -10,1 -18,5 -32,11 -10,3 -4,3 -13,8 -15,9 -25,11 -27,31 -1,14 -1,26 2,38z"/>
  <path class="fil0" d="M9274 9288c6,2 17,5 24,-1 7,-5 11,-11 13,-19 4,-16 4,5 6,-35 -6,1 -11,4 -20,7 -6,2 -2,2 -8,5 -9,6 -15,7 -17,19 0,9 0,17 2,24z"/>
  <path class="fil0" d="M9176 9171c10,5 27,8 38,0 11,-9 17,-19 21,-31 6,-25 6,8 9,-54 -9,1 -17,5 -31,10 -9,4 -4,4 -12,9 -15,8 -25,11 -27,30 -1,13 -1,25 2,36z"/>
  <path class="fil0" d="M9382 8838c13,21 29,28 55,14 7,-3 1,1 8,-5l17 -19c0,-1 1,-2 1,-2l15 -18 -51 -8c-13,-2 -23,4 -37,21 -1,1 -1,2 -2,2 0,1 -1,2 -1,2 -5,6 -1,3 -8,8l3 5z"/>
  <path class="fil0" d="M9061 9481c-9,-6 -6,-8 -21,-11 -20,-2 -44,-3 -45,20 -2,18 16,29 35,30 17,0 26,-6 43,-17l4 -4c-3,-18 -2,-8 -16,-18z"/>
  <path class="fil0" d="M9145 9515c-9,-6 -5,-9 -21,-11 -19,-3 -44,-3 -45,20 -2,17 16,29 35,29 17,0 26,-5 43,-17l4 -3c-3,-19 -2,-9 -16,-18z"/>
  <path class="fil0" d="M9269 9603c-9,-6 -5,-8 -21,-10 -19,-3 -43,-3 -45,19 -1,18 16,29 35,30 17,0 27,-6 43,-17l4 -4c-3,-18 -2,-8 -16,-18z"/>
  <path class="fil0" d="M9341 9658c-9,-6 -6,-8 -21,-11 -20,-3 -44,-3 -46,20 -1,17 17,29 36,29 17,1 26,-5 43,-17l4 -3c-3,-19 -2,-8 -16,-18z"/>
  <path class="fil0" d="M9417 9730c-9,-7 -6,-9 -22,-11 -19,-3 -43,-3 -45,19 -1,18 16,30 36,30 16,0 26,-6 43,-17l3 -3c-3,-19 -1,-9 -15,-18z"/>
  <path class="fil0" d="M8807 9472c-9,-6 -6,-8 -21,-11 -20,-2 -44,-3 -46,20 -1,18 17,29 36,30 17,0 26,-6 43,-17l4 -4c-3,-18 -2,-8 -16,-18z"/>
  <path class="fil0" d="M9047 9369l-7 -2c1,5 3,5 -2,3 -1,19 -23,28 -23,64 28,-1 78,-9 87,-38 0,-23 1,-15 -6,-31 -8,-1 -18,-1 -25,0 -9,1 -13,3 -24,4z"/>
  <path class="fil0" d="M8920 9268l-6 -2c2,5 3,4 -2,3 0,16 -20,24 -20,55 25,-1 69,-7 77,-32 -1,-21 0,-14 -6,-28 -6,0 -16,-1 -22,0 -8,1 -11,3 -21,4z"/>
  <path class="fil0" d="M8893 9350l-6 -2c2,5 3,4 -2,3 0,16 -20,24 -20,55 25,-1 69,-7 77,-32 -1,-21 0,-13 -6,-28 -6,0 -16,-1 -22,0 -8,1 -11,3 -21,4z"/>
  <path class="fil0" d="M9007 9638c4,-2 -1,1 4,-3 15,-13 -4,2 4,-4l15 -9c5,-4 8,-6 13,-10 8,-7 5,-4 9,-13 -2,-2 3,0 -7,-3 -17,-6 -14,-2 -21,-14 -28,5 -48,-13 -68,9 -36,38 12,58 51,47z"/>
  <path class="fil0" d="M8756 9820c-2,15 -2,15 -12,20l-3 26c18,-2 26,-7 41,-13 21,-10 19,-22 16,-32 -17,-9 -25,-3 -42,-1z"/>
  <path class="fil0" d="M8888 9781c-1,15 -2,15 -12,20l-3 26c19,-2 26,-7 41,-13 21,-10 19,-22 16,-32 -17,-9 -25,-3 -42,-1z"/>
  <path class="fil0" d="M8742 9917c-9,-7 -5,-9 -21,-11 -19,-3 -43,-3 -45,19 -2,18 16,30 35,30 17,0 26,-6 43,-17l4 -3c-3,-19 -2,-9 -16,-18z"/>
  <path class="fil0" d="M8754 9769c-9,-6 -6,-8 -21,-11 -19,-2 -44,-3 -45,20 -2,18 16,29 35,30 17,0 26,-6 43,-17l4 -4c-3,-18 -2,-8 -16,-18z"/>
  <path class="fil0" d="M8812 9892c-1,16 -1,15 -12,21l-2 26c18,-3 25,-7 40,-14 22,-9 19,-21 17,-32 -17,-8 -25,-2 -43,-1z"/>
  <path class="fil0" d="M8639 10084c-6,-36 -3,-12 -9,-31 -1,-2 -2,-8 -3,-8 -5,-14 -6,-4 -14,-21l-34 0c0,16 -2,28 6,38l10 9c14,8 26,11 44,13z"/>
  <path class="fil0" d="M8587 9773l28 0c7,-1 21,-9 29,-12l7 -6c-2,-17 0,-9 -16,-17 -12,-6 -6,-8 -20,-10l-38 -1c-1,11 -2,10 -8,15l-4 4c13,22 18,13 22,27z"/>
  <path class="fil0" d="M9055 9974c-2,-12 -2,-5 3,-7l-1 -8 7 -2c-1,-10 0,-25 1,-35 -9,-6 -11,-6 -13,-20 -10,-1 -17,-4 -26,-1 -13,4 -26,28 -28,41 -2,12 12,39 18,48 21,32 23,4 39,-16z"/>
  <path class="fil0" d="M9225 9984c-2,-12 -2,-5 3,-6l-1 -8 7 -3c-1,-9 0,-25 1,-35 -9,-5 -11,-5 -13,-19 -10,-1 -17,-5 -26,-2 -13,5 -26,29 -28,42 -2,11 12,38 18,48 21,31 23,3 39,-17z"/>
  <path class="fil0" d="M8951 10158c-2,-12 -2,-5 3,-6l-1 -9 7 -2c-1,-9 0,-25 1,-35 -9,-5 -11,-5 -13,-19 -10,-1 -17,-5 -26,-2 -13,5 -26,29 -28,42 -2,11 12,38 18,47 21,32 23,4 39,-16z"/>
  <path class="fil0" d="M8326 9352c8,6 8,5 9,17l0 3c7,5 10,4 10,16 7,3 8,2 10,12 5,2 -1,-3 6,3 3,3 2,3 4,6 7,0 11,1 16,3 18,4 10,-4 21,-2 32,7 25,-31 14,-50 -3,-5 -1,6 -3,-7 -11,-1 -9,0 -11,-10l-76 -2 0 11z"/>
  <path class="fil0" d="M8767 9419c6,-8 -8,6 4,-3l5 -4c4,-3 4,-4 9,-7 16,-12 26,-24 21,-44l-11 -25 -22 1c6,5 14,6 7,14 -4,4 -12,8 -15,13 -4,7 -4,17 -4,26 0,3 0,10 0,13 1,6 2,11 6,16z"/>
  <path class="fil0" d="M9301 8694l-8 -13c-15,0 -26,7 -35,16 -7,8 -7,22 -8,35 5,1 38,-9 44,-13l7 -25z"/>
  <path class="fil0" d="M9253 8749l-8 -13c-15,1 -26,7 -35,17 -7,8 -7,21 -8,35 5,0 38,-10 44,-13l7 -26z"/>
  <path class="fil0" d="M8994 8996c-6,11 -23,45 -8,62 17,18 24,-3 24,-3 18,-29 -3,-34 -16,-59z"/>
  <path class="fil0" d="M9400 9468c-1,5 3,8 -9,9 -5,15 -4,7 -11,15 -8,11 3,8 -11,12 -2,17 -1,23 -2,37 10,2 6,0 10,6l4 9c0,0 0,2 1,2 18,-1 28,4 37,-12 10,-17 6,-15 11,-38l3 -5c-5,-4 -2,0 -5,-5 -2,-2 -3,-4 -4,-6 -3,-8 -2,-6 -2,-13 -6,-6 -4,-4 -5,-14l-15 0c1,6 3,6 -2,3z"/>
  <path class="fil0" d="M8769 9713c-9,-6 -6,-8 -21,-10 -19,-3 -44,-3 -45,19 -2,18 16,30 35,30 17,0 26,-6 43,-17l4 -4c-3,-18 -2,-8 -16,-18z"/>
  <path class="fil0" d="M8651 9926c-9,-7 -5,-9 -21,-11 -19,-3 -44,-3 -45,19 -2,18 16,30 35,30 17,0 26,-6 43,-17l4 -3c-3,-19 -2,-9 -16,-18z"/>
  <path class="fil0" d="M8530 9627c7,3 32,8 39,7 12,-4 20,-17 27,-26l-9 -13c-9,-2 -13,-3 -23,-1 -11,2 -13,4 -26,20 -3,5 -6,7 -8,13z"/>
  <path class="fil0" d="M8485 9408c-6,-4 -4,-6 -14,-7 -13,-2 -29,-2 -30,13 -1,12 10,19 23,20 11,0 18,-4 29,-12l2 -2c-2,-12 -1,-6 -10,-12z"/>
  <path class="fil0" d="M8507 9263c-6,-4 -4,-5 -15,-7 -12,-2 -28,-2 -29,13 -1,12 10,20 23,20 11,0 17,-4 29,-11l2 -3c-2,-12 -1,-5 -10,-12z"/>
  <path class="fil0" d="M8433 9168c-6,-4 -4,-5 -14,-7 -13,-2 -29,-2 -30,13 -1,12 11,20 23,20 11,0 18,-4 29,-11l2 -3c-2,-12 -1,-5 -10,-12z"/>
  <path class="fil0" d="M8765 9638c-6,-4 -3,-5 -14,-7 -13,-2 -29,-2 -30,13 -1,12 11,20 24,20 11,0 17,-4 28,-11l3 -3c-2,-12 -1,-5 -11,-12z"/>
  <path class="fil0" d="M8471 9566c-6,-4 -4,-5 -15,-7 -12,-2 -28,-2 -30,13 0,12 11,20 24,20 11,0 17,-4 29,-12l2 -2c-2,-12 -1,-5 -10,-12z"/>
  <path class="fil0" d="M8446 9728c-6,-4 -4,-5 -14,-7 -13,-2 -29,-2 -30,13 -1,12 11,20 24,20 11,0 17,-4 28,-11l2 -3c-1,-12 -1,-5 -10,-12z"/>
  <path class="fil0" d="M8551 9743c-6,-4 -4,-6 -14,-7 -13,-2 -29,-2 -30,13 -1,12 10,19 23,20 11,0 18,-4 29,-12l2 -2c-2,-12 -1,-6 -10,-12z"/>
  <path class="fil0" d="M8960 9691c-6,-5 -4,-6 -14,-7 -13,-2 -29,-2 -30,13 -1,11 11,19 24,19 11,0 17,-4 28,-11l3 -2c-2,-13 -2,-6 -11,-12z"/>
  <path class="fil0" d="M8703 9368c-6,-4 -4,-6 -14,-7 -13,-2 -29,-2 -30,13 -1,12 11,19 24,20 11,0 17,-4 28,-12l3 -2c-2,-12 -2,-6 -11,-12z"/>
  <path class="fil0" d="M8923 9221c-6,-4 -4,-6 -15,-7 -12,-2 -28,-2 -30,13 0,11 11,19 24,19 11,0 17,-4 29,-11l2 -2c-2,-13 -1,-6 -10,-12z"/>
  <path class="fil0" d="M8670 9168c-6,-4 -3,-5 -14,-7 -13,-2 -29,-2 -30,13 -1,12 11,20 24,20 11,0 17,-4 28,-11l3 -3c-2,-12 -1,-5 -11,-12z"/>
  <path class="fil0" d="M8372 9286c-6,-4 -3,-5 -14,-7 -13,-2 -29,-2 -30,13 -1,12 11,20 24,20 11,0 17,-4 28,-12l3 -2c-2,-12 -1,-5 -11,-12z"/>
  <path class="fil0" d="M8507 9376c-6,-4 -4,-5 -15,-7 -12,-2 -28,-2 -29,13 -1,12 10,20 23,20 11,0 17,-4 29,-11l2 -3c-2,-12 -1,-5 -10,-12z"/>
  <path class="fil0" d="M8412 9777c-6,-4 -4,-5 -14,-7 -13,-2 -29,-2 -30,13 -1,12 10,20 23,20 11,0 17,-4 29,-11l2 -3c-2,-12 -1,-5 -10,-12z"/>
  <path class="fil0" d="M8968 9486c-6,-4 -3,-6 -14,-7 -12,-2 -29,-2 -30,13 -1,12 11,19 24,20 11,0 17,-4 28,-12l3 -2c-2,-12 -1,-6 -11,-12z"/>
  <path class="fil0" d="M8830 8540l-2 5c0,0 -1,1 -1,2 0,0 -1,1 -1,2l-4 3c-7,5 -3,2 -10,4l5 1c21,11 1,14 43,14 17,0 7,3 23,-3 1,-3 7,-14 8,-20 0,-1 -18,-32 -42,-14 -10,8 -1,9 -19,6z"/>
  <path class="fil0" d="M8557 8636l-2 4c0,1 -1,2 -1,3 0,0 -1,1 -1,2l-4 3c-6,5 -3,1 -10,3l6 2c21,11 0,14 42,14 17,0 7,2 23,-3 1,-3 7,-14 8,-20 0,-1 -18,-32 -42,-14 -10,7 0,9 -19,6z"/>
  <path class="fil0" d="M8976 8493c-33,12 -42,46 -25,52 27,10 35,-27 25,-52z"/>
  <path class="fil0" d="M8859 8396c-25,9 -32,35 -19,40 21,8 27,-21 19,-40z"/>
  <path class="fil0" d="M8788 8528c-25,9 -32,36 -19,40 21,8 27,-21 19,-40z"/>
  <path class="fil0" d="M8755 8577c-25,9 -32,36 -19,40 21,8 27,-21 19,-40z"/>
  <path class="fil0" d="M8931 8527c-25,9 -32,36 -19,40 21,8 27,-21 19,-40z"/>
  <path class="fil0" d="M8996 8404c-25,9 -33,36 -20,40 21,8 28,-21 20,-40z"/>
  <path class="fil0" d="M8931 8464c15,22 42,22 44,9 2,-22 -28,-21 -44,-9z"/>
  <path class="fil0" d="M9020 8413c15,22 42,22 44,8 2,-22 -28,-21 -44,-8z"/>
  <path class="fil0" d="M8984 8499c15,22 42,22 43,9 3,-22 -27,-22 -43,-9z"/>
  <path class="fil0" d="M8815 8670c15,22 42,23 44,9 2,-22 -27,-21 -44,-9z"/>
  <path class="fil0" d="M8510 8803c15,22 42,23 44,9 2,-22 -28,-21 -44,-9z"/>
  <path class="fil0" d="M8569 8771c14,22 42,22 43,9 2,-23 -27,-22 -43,-9z"/>
  <path class="fil0" d="M8673 8824c15,22 42,22 43,9 3,-22 -27,-22 -43,-9z"/>
  <path class="fil0" d="M8881 8902c15,22 42,22 43,9 3,-22 -27,-22 -43,-9z"/>
  <path class="fil0" d="M8858 9019c14,22 42,22 43,9 2,-22 -27,-22 -43,-9z"/>
  <path class="fil0" d="M8521 8941c15,22 42,22 43,9 3,-22 -27,-22 -43,-9z"/>
  <path class="fil0" d="M8424 8869c14,22 42,22 43,8 2,-22 -27,-21 -43,-8z"/>
  <path class="fil0" d="M8441 9012c14,22 42,22 43,8 2,-22 -27,-21 -43,-8z"/>
  <path class="fil0" d="M8539 8996c15,22 42,23 44,9 2,-22 -27,-21 -44,-9z"/>
  <path class="fil0" d="M8781 9575c15,22 42,22 44,8 2,-22 -27,-21 -44,-8z"/>
  <path class="fil0" d="M8767 9544c14,22 42,23 43,9 2,-22 -27,-21 -43,-9z"/>
  <path class="fil0" d="M8819 9537c14,22 42,22 43,9 2,-23 -27,-22 -43,-9z"/>
  <path class="fil0" d="M8888 9597c14,22 42,22 43,9 2,-23 -27,-22 -43,-9z"/>
  <path class="fil0" d="M8822 9614c15,22 42,22 44,8 2,-22 -27,-21 -44,-8z"/>
  <path class="fil0" d="M8868 9704c14,22 42,22 43,8 2,-22 -27,-21 -43,-8z"/>
  <path class="fil0" d="M8946 9657c14,22 42,22 43,9 2,-23 -27,-22 -43,-9z"/>
  <path class="fil1" d="M6930 9362l90 -2 0 33c-20,11 -35,23 -43,36 -9,13 -13,29 -13,48 1,34 16,62 44,82 29,19 68,29 117,28 50,-1 89,-12 117,-32 29,-21 43,-48 43,-82 -1,-21 -6,-38 -15,-51 -10,-14 -25,-25 -44,-33l0 -32 93 -2c12,16 21,33 27,51 6,18 9,38 9,59 1,64 -18,115 -58,151 -40,37 -97,56 -169,57 -69,2 -124,-15 -166,-49 -43,-35 -64,-81 -65,-137 -1,-20 2,-40 7,-61 6,-20 14,-42 26,-64zm287 -383c54,8 94,26 120,55 26,29 35,67 29,112 -6,46 -26,79 -59,100 -32,21 -76,27 -130,20 -55,-8 -95,-26 -120,-55 -26,-29 -36,-67 -29,-112 6,-46 26,-79 58,-100 33,-21 77,-27 131,-20zm88 159c4,-22 -4,-40 -21,-54 -17,-14 -43,-24 -78,-29 -34,-5 -61,-2 -82,7 -21,9 -33,24 -36,45 -3,21 4,39 22,54 17,14 43,24 77,29 35,5 63,3 83,-6 21,-10 32,-25 35,-46zm148 -449l-18 74 -33 -8 -5 12c12,17 19,32 22,44 3,12 3,26 -1,41 -5,20 -13,35 -25,47 -11,11 -26,19 -45,22 -10,2 -23,3 -38,1 -14,-2 -37,-6 -69,-14l-12 -3 -154 -39 18 -72 195 48c23,6 41,6 55,-1 15,-6 24,-18 28,-36 3,-9 2,-19 0,-29 -3,-10 -8,-21 -17,-33l-233 -58 18 -74 314 78zm-273 -201l29 -71 31 12 7 -11c-10,-19 -15,-34 -16,-47 -1,-12 1,-26 7,-40 13,-33 33,-52 60,-57 27,-4 72,6 135,31l146 59 -28 70 -186 -75c-22,-9 -40,-11 -55,-7 -14,4 -25,15 -32,32 -4,9 -5,19 -4,29 1,11 5,22 11,35l224 90 -29 71 -300 -121zm285 -554l61 35 -15 25c-15,1 -29,4 -40,10 -12,7 -21,16 -28,28 -13,21 -14,44 -3,67 10,22 31,43 62,61 29,16 56,23 80,20 25,-2 44,-14 56,-35 7,-12 10,-24 9,-38 0,-13 -5,-27 -13,-42l15 -25 66 38c-1,18 -3,37 -9,55 -5,18 -13,36 -24,55 -21,38 -52,60 -91,68 -39,7 -81,-2 -126,-28 -49,-28 -79,-61 -92,-98 -13,-37 -8,-77 17,-119 9,-17 20,-31 32,-44 12,-12 27,-23 43,-33zm-57 -165l54 -73 49 36 -53 73 -50 -36zm159 13l255 185 -45 62 -255 -185 45 -62zm0 -228l355 277 -47 61 -355 -278 47 -60zm377 -75c-46,-54 -69,-106 -71,-156 -1,-50 21,-93 64,-129 43,-37 89,-50 139,-40 49,10 96,42 142,96 48,59 74,113 77,163 2,51 -19,94 -63,131 -45,38 -92,51 -141,40 -49,-11 -98,-46 -147,-105zm37 -232c-22,18 -30,43 -24,75 5,32 25,67 57,106 33,39 64,64 94,75 30,11 56,7 79,-11 22,-19 30,-44 25,-75 -6,-32 -25,-67 -58,-106 -33,-39 -64,-64 -94,-75 -31,-11 -57,-8 -79,11zm315 -89l-38 23 -26 -43 37 -23 -18 -29c-19,-31 -27,-56 -24,-77 4,-21 19,-40 45,-56l46 -29 31 48 -23 14c-16,10 -26,19 -30,25 -3,7 -3,15 1,25 0,0 3,6 9,17 6,10 10,20 13,31l10 0c3,-4 6,-7 9,-10 3,-4 8,-7 14,-10l9 -7 30 -18 26 43 -56 35 140 225 -65 40 -140 -224zm576 -452l32 83 -30 12c-18,-15 -34,-25 -49,-29 -15,-3 -32,-2 -49,5 -33,12 -54,36 -62,69 -9,34 -5,74 13,120 17,46 41,79 70,99 30,20 60,24 92,12 19,-8 33,-18 43,-32 9,-14 14,-31 15,-52l30 -12 34 88c-11,16 -24,31 -39,42 -15,12 -32,22 -52,29 -60,23 -114,22 -162,-3 -48,-25 -85,-71 -111,-139 -25,-64 -28,-122 -10,-173 18,-52 53,-88 106,-108 18,-7 38,-12 59,-14 21,-2 45,-1 70,3zm454 142c12,53 10,97 -8,131 -18,35 -49,57 -94,68 -45,10 -83,4 -114,-20 -32,-23 -53,-61 -66,-114 -12,-54 -9,-98 9,-132 17,-35 49,-57 94,-67 45,-11 83,-4 114,19 31,23 53,61 65,115zm-116 139c21,-5 35,-18 43,-39 7,-21 6,-49 -2,-83 -7,-34 -19,-59 -35,-75 -16,-16 -35,-22 -56,-17 -20,5 -34,18 -42,40 -7,21 -7,49 1,82 8,34 20,59 36,75 15,16 34,22 55,17zm194 -320l76 -5 3 34 13 1c12,-17 24,-29 35,-35 11,-7 24,-11 39,-12 35,-2 61,8 77,30 17,22 27,67 32,134l11 158 -75 5 -14 -200c-2,-23 -8,-41 -18,-52 -10,-12 -24,-17 -43,-15 -10,0 -19,3 -28,9 -9,6 -18,14 -26,25l17 241 -77 5 -22 -323zm607 6l-1 70 -30 0c-8,-13 -17,-24 -28,-31 -11,-7 -24,-11 -37,-11 -25,0 -45,10 -60,30 -15,20 -23,48 -24,84 0,33 7,60 21,80 15,21 34,31 58,31 14,1 26,-3 37,-10 12,-6 22,-17 31,-32l29 1 -1 76c-16,9 -34,15 -52,20 -19,4 -38,6 -60,5 -43,-1 -78,-16 -104,-47 -25,-31 -37,-72 -36,-124 0,-56 14,-98 40,-128 27,-29 64,-43 113,-42 19,0 37,2 54,7 17,4 33,11 50,21zm148 135l6 8c11,-1 21,-1 32,-1 10,0 20,1 30,3 14,3 26,5 37,9 10,3 20,7 29,12l9 -6c-3,-36 -9,-61 -18,-76 -8,-15 -21,-24 -38,-27 -17,-3 -32,1 -45,12 -13,12 -27,34 -42,66zm191 76l-191 -34c-2,33 3,59 16,79 13,19 32,32 59,36 14,3 27,3 39,-1 12,-3 24,-9 37,-19l28 5 -11 66c-18,6 -36,9 -56,10 -19,1 -40,0 -60,-4 -51,-9 -87,-31 -108,-66 -22,-35 -28,-81 -18,-137 9,-51 29,-89 59,-113 30,-24 67,-32 112,-24 40,7 69,25 87,54 18,29 23,66 15,111 -1,7 -4,17 -7,32 0,2 -1,4 -1,5zm123 -144l64 17 -17 62 12 5c17,-19 34,-31 51,-36 17,-5 38,-5 62,2l8 2 -21 77 -36 -10c-27,-7 -47,-7 -59,-1 -13,6 -23,26 -32,59l-42 155 -74 -20 84 -312zm278 77l70 31 -14 31 11 7c19,-9 35,-14 48,-15 12,0 25,2 39,8 33,15 51,36 55,63 4,27 -8,72 -35,133l-65 145 -68 -31 81 -183c10,-21 13,-40 9,-55 -3,-14 -14,-26 -31,-33 -9,-4 -19,-6 -29,-5 -10,1 -22,4 -35,10l-98 221 -70 -31 132 -296zm317 300l3 10c10,2 20,5 30,9 10,3 19,8 28,13 13,7 23,13 32,20 8,6 16,13 24,21l10 -3c8,-35 11,-61 8,-78 -3,-16 -12,-29 -28,-38 -15,-8 -31,-9 -46,-3 -16,7 -37,23 -61,49zm156 134l-170 -94c-13,30 -16,56 -10,79 6,23 20,41 43,54 13,7 25,11 37,12 13,1 27,-1 42,-6l25 14 -32 58c-18,0 -37,-3 -56,-8 -19,-6 -38,-14 -56,-24 -45,-25 -72,-57 -81,-97 -9,-40 1,-86 29,-136 25,-45 56,-74 92,-87 36,-13 74,-9 114,13 35,20 57,46 64,80 8,33 0,69 -22,110 -3,5 -9,15 -16,28 -2,2 -3,3 -3,4zm270 94c3,-10 3,-20 0,-29 -4,-9 -10,-17 -18,-23 -20,-15 -40,-18 -60,-11 -20,8 -42,27 -65,58 -21,27 -32,53 -34,75 -3,22 5,39 21,52 10,7 19,11 29,12 9,2 20,0 31,-5l96 -129zm-85 241l-61 -46 20 -27 -4 -6c-17,5 -32,7 -46,5 -13,-2 -26,-8 -38,-17 -28,-21 -41,-50 -40,-86 2,-37 18,-76 49,-116 32,-43 65,-70 100,-82 34,-12 66,-7 94,14 12,10 22,21 27,34 6,13 8,29 7,46l6 3 96 -128 62 46 -272 360zm686 144l-70 57 -20 -25c9,-21 13,-40 12,-56 -1,-15 -8,-30 -19,-45 -22,-27 -51,-39 -86,-37 -34,2 -71,18 -109,49 -39,31 -63,64 -73,98 -10,34 -4,64 18,90 12,16 27,27 43,32 16,4 34,4 54,-2l20 25 -72 59c-19,-5 -37,-13 -53,-24 -16,-10 -30,-24 -43,-40 -41,-50 -56,-102 -48,-155 9,-54 42,-104 99,-149 53,-43 106,-64 161,-63 55,1 100,24 136,68 12,15 22,32 31,52 8,19 15,42 19,66zm98 82l49 76 -51 34 -50 -76 52 -34zm-69 144l-264 171 -42 -64 264 -172 42 65zm-173 333c-17,-33 -23,-55 -18,-69 4,-13 25,-29 63,-48l153 -78 -19 -38 44 -22 23 45 85 -43 31 60 -85 43 32 62 -45 22 -32 -61 -154 79c-15,7 -24,14 -26,19 -3,6 0,16 7,31l15 29 -46 23 -28 -54zm452 -95l38 82 -56 26 -38 -82 56 -26zm-89 132l-285 133 -32 -69 285 -133 32 69zm-199 174l186 54c6,2 13,5 23,8 9,4 20,8 33,13l3 -5c-4,-8 -8,-16 -12,-23 -3,-7 -6,-14 -8,-20l-27 -80 52 -19 70 201 -49 17 -201 -55c-8,-2 -16,-5 -24,-8 -9,-4 -18,-9 -28,-14l-5 7c5,6 9,12 12,18 3,6 6,13 9,19l39 114 -55 19 -78 -226 60 -20zm236 319l-6 9c5,10 9,19 13,29 3,10 6,20 8,30 3,14 4,26 5,37 1,10 0,21 -1,32l8 6c33,-16 54,-31 65,-44 11,-13 15,-28 12,-46 -4,-17 -13,-29 -28,-37 -15,-8 -41,-14 -76,-16zm-3 206l-37 -191c-31,10 -53,24 -67,43 -14,20 -18,42 -13,68 2,14 7,26 15,37 7,10 17,19 31,27l5 29 -65 12c-12,-14 -21,-30 -30,-48 -8,-18 -14,-37 -18,-58 -9,-50 -2,-91 23,-124 25,-33 66,-55 123,-66 50,-10 92,-5 126,15 33,19 54,51 62,96 8,40 2,73 -19,100 -20,27 -53,45 -98,54 -7,1 -18,3 -33,5 -2,1 -4,1 -5,1zm181 69l7 76 -34 3 -1 13c17,13 29,24 36,35 7,10 11,23 12,38 3,36 -6,62 -28,79 -22,16 -66,27 -133,33l-158 14 -7 -75 200 -17c23,-3 41,-9 52,-19 11,-10 16,-25 15,-43 -1,-10 -5,-20 -10,-28 -6,-9 -15,-18 -26,-26l-241 21 -6 -76 322 -28zm-222 360l-3 33c-12,5 -22,12 -29,22 -8,11 -12,22 -13,36 -1,14 2,26 10,36 7,11 16,16 27,17 18,1 37,-17 57,-54 6,-10 10,-17 13,-22 12,-22 25,-37 40,-46 15,-10 32,-13 52,-12 30,2 52,14 68,35 15,22 22,51 19,87 -1,15 -3,30 -7,46 -4,15 -9,30 -15,46l-65 -5 2 -29c12,-8 21,-16 27,-26 6,-9 9,-19 10,-30 1,-14 -2,-26 -8,-35 -6,-9 -15,-14 -27,-15 -16,-1 -32,13 -48,43 -7,13 -13,24 -18,32 -15,24 -30,41 -45,50 -14,9 -31,13 -51,12 -32,-3 -57,-15 -73,-39 -17,-23 -24,-54 -22,-92 2,-18 4,-36 8,-52 5,-16 10,-31 16,-43l75 5z"/>
 </g>
</svg>
